<?xml version="1.0" encoding="utf-8"?>
<!-- Generated by IcoMoon.io -->
<!DOCTYPE svg PUBLIC "-//W3C//DTD SVG 1.1//EN" "http://www.w3.org/Graphics/SVG/1.1/DTD/svg11.dtd">
<svg version="1.1" xmlns="http://www.w3.org/2000/svg" xmlns:xlink="http://www.w3.org/1999/xlink" width="32" height="32" viewBox="0 0 32 32">
<path fill="#444444" d="M15.959 2.073c-7.651 0-13.854 6.106-13.854 13.639s6.203 13.64 13.854 13.64c7.652 0 13.855-6.106 13.855-13.64 0-7.532-6.203-13.639-13.855-13.639zM23.562 11.164c0.64 0 1.157 0.517 1.157 1.156s-0.517 1.156-1.157 1.156c-0.639 0-1.156-0.518-1.156-1.156 0-0.64 0.517-1.156 1.156-1.156zM16.107 6.822c0.639 0 1.157 0.518 1.157 1.157s-0.518 1.156-1.157 1.156c-0.639 0-1.156-0.518-1.156-1.156-0.001-0.639 0.517-1.157 1.156-1.157zM8.357 11.164c0.639 0 1.157 0.517 1.157 1.156s-0.518 1.156-1.157 1.156-1.156-0.518-1.156-1.156c-0.001-0.64 0.516-1.156 1.156-1.156zM9.406 15.923c-0.976 1.142 1.291 6.6 1.291 6.6h-1.508c-1.518-8.518-2.387-0.045-2.387-0.045l-1.187 0.087 0.719-3.814c0.413-1.209 0.266-2.298 0.247-2.778-0.076-2.066-1.549 2.388-1.549 2.388-0.145-0.388-0.686-0.738-0.686-0.738 1.337-4.356 3.288-3.617 3.288-3.617 3.217 0.155 4.228-2.411 4.228-2.411 0 0.233 0.506 1.167 0.506 1.167-2.385 1.905-2.963 3.163-2.963 3.163zM17.382 11.914c-0.169 1.279 1.58 6.267 1.58 6.267l-1.264 0.273c-1.407-8.907-2.82-0.35-2.82-0.35h-1.508c1.675-3.695 1.481-6.19 1.481-6.19 0.227-0.979-3.008-3.412-3.008-3.412l0.468-1.532c4.084 6.097 7.191 0 7.191 0l0.363 1.373c-2.929 2.649-2.484 3.571-2.484 3.571zM26.888 18.36c0 0-1.473-4.454-1.549-2.388-0.018 0.481-0.166 1.569 0.248 2.778l0.718 3.814-1.187-0.087c0 0-0.869-8.473-2.387 0.045h-1.508c0 0 2.266-5.458 1.291-6.6 0 0-0.578-1.257-2.963-3.164 0 0 0.506-0.934 0.506-1.167 0 0 1.011 2.567 4.229 2.411 0 0 1.951-0.738 3.289 3.617 0 0.001-0.543 0.351-0.687 0.739z"></path>
</svg>
