<?xml version="1.0" encoding="utf-8"?>
<!-- Generated by IcoMoon.io -->
<!DOCTYPE svg PUBLIC "-//W3C//DTD SVG 1.1//EN" "http://www.w3.org/Graphics/SVG/1.1/DTD/svg11.dtd">
<svg version="1.1" xmlns="http://www.w3.org/2000/svg" xmlns:xlink="http://www.w3.org/1999/xlink" width="32" height="32" viewBox="0 0 32 32">
<path fill="#444444" d="M25.461 32h-19.102c-3.507 0-6.359-2.853-6.359-6.359v-17.409c0-3.507 2.853-6.359 6.359-6.359h19.102c3.507 0 6.359 2.853 6.359 6.359v17.409c0 3.506-2.853 6.359-6.359 6.359zM6.359 4.901c-1.838 0-3.331 1.494-3.331 3.331v17.409c0 1.838 1.494 3.331 3.331 3.331h19.102c1.836 0 3.331-1.494 3.331-3.331v-17.409c0-1.838-1.495-3.331-3.331-3.331h-19.102z"></path>
<path fill="#444444" d="M1.793 10.495h28.793v3.028h-28.793v-3.028z"></path>
<path fill="#444444" d="M6.775 0h3.028v5.928h-3.028v-5.928z"></path>
<path fill="#444444" d="M22.018 0h3.028v5.928h-3.028v-5.928z"></path>
</svg>
