<?xml version="1.0" encoding="utf-8"?>
<!-- Generated by IcoMoon.io -->
<!DOCTYPE svg PUBLIC "-//W3C//DTD SVG 1.1//EN" "http://www.w3.org/Graphics/SVG/1.1/DTD/svg11.dtd">
<svg version="1.1" xmlns="http://www.w3.org/2000/svg" xmlns:xlink="http://www.w3.org/1999/xlink" width="32" height="32" viewBox="0 0 32 32">
<path fill="#444444" d="M16 0c-8.837 0-16 7.164-16 16s7.164 16 16 16c8.836 0 16-7.164 16-16s-7.164-16-16-16zM26.356 8.087l-11.829 17.36c-0.261 0.409-0.713 0.655-1.197 0.655-0.003 0-0.005 0-0.009 0-0.488-0.003-0.94-0.256-1.197-0.671l-6.488-9.291c-0.415-0.667-0.211-1.544 0.457-1.959 0.667-0.416 1.544-0.211 1.959 0.456l5.299 7.379 10.613-15.464c0.423-0.661 1.303-0.855 1.964-0.429 0.66 0.424 0.852 1.303 0.429 1.964z"></path>
</svg>
