<?xml version="1.0" encoding="utf-8"?>
<!-- Generated by IcoMoon.io -->
<!DOCTYPE svg PUBLIC "-//W3C//DTD SVG 1.1//EN" "http://www.w3.org/Graphics/SVG/1.1/DTD/svg11.dtd">
<svg version="1.1" xmlns="http://www.w3.org/2000/svg" xmlns:xlink="http://www.w3.org/1999/xlink" width="32" height="32" viewBox="0 0 32 32">
<path fill="#444444" d="M19.256 2.961c0 1.635-1.326 2.961-2.961 2.961s-2.961-1.326-2.961-2.961c0-1.635 1.326-2.961 2.961-2.961s2.961 1.326 2.961 2.961z"></path>
<path fill="#444444" d="M19.256 16c0 1.636-1.326 2.961-2.961 2.961s-2.961-1.326-2.961-2.961c0-1.636 1.326-2.961 2.961-2.961s2.961 1.326 2.961 2.961z"></path>
<path fill="#444444" d="M19.256 29.039c0 1.636-1.326 2.961-2.961 2.961s-2.961-1.326-2.961-2.961c0-1.636 1.326-2.961 2.961-2.961s2.961 1.326 2.961 2.961z"></path>
</svg>
