<?xml version="1.0" encoding="utf-8"?>
<!-- Generated by IcoMoon.io -->
<!DOCTYPE svg PUBLIC "-//W3C//DTD SVG 1.1//EN" "http://www.w3.org/Graphics/SVG/1.1/DTD/svg11.dtd">
<svg version="1.1" xmlns="http://www.w3.org/2000/svg" xmlns:xlink="http://www.w3.org/1999/xlink" width="32" height="32" viewBox="0 0 32 32">
<path fill="#444444" d="M15.978 22.609c-4.889 0-8.865-5.071-8.865-11.305s3.978-11.305 8.865-11.305 8.865 5.072 8.865 11.306-3.977 11.303-8.865 11.303zM15.978 2.462c-3.531 0-6.404 3.968-6.404 8.844s2.873 8.843 6.404 8.843 6.404-3.967 6.404-8.843-2.871-8.844-6.404-8.844z"></path>
<path fill="#444444" d="M30.111 32h-28.265c-0.679 0-1.231-0.55-1.231-1.231 0-5.74 4.058-10.921 10.098-12.892 0.459-0.153 0.965-0.017 1.292 0.341 0.8 0.88 2.139 1.929 3.973 1.929 1.831 0 3.172-1.050 3.973-1.929 0.325-0.359 0.832-0.495 1.291-0.341 6.041 1.972 10.098 7.152 10.098 12.892 0 0.681-0.551 1.231-1.231 1.231zM3.154 29.538h25.647c-0.506-3.956-3.415-7.445-7.618-9.071-1.505 1.387-3.327 2.142-5.205 2.142-1.879 0-3.701-0.754-5.205-2.142-4.202 1.626-7.113 5.115-7.618 9.071z"></path>
</svg>
