<?xml version="1.0" encoding="utf-8"?>
<!-- Generated by IcoMoon.io -->
<!DOCTYPE svg PUBLIC "-//W3C//DTD SVG 1.1//EN" "http://www.w3.org/Graphics/SVG/1.1/DTD/svg11.dtd">
<svg version="1.1" xmlns="http://www.w3.org/2000/svg" xmlns:xlink="http://www.w3.org/1999/xlink" width="32" height="32" viewBox="0 0 32 32">
<path fill="#444444" d="M30.769 7.077h-23.908c-0.51 0-0.923-0.414-0.923-0.923s0.414-0.923 0.923-0.923h23.908c0.51 0 0.923 0.414 0.923 0.923s-0.414 0.923-0.923 0.923z"></path>
<path fill="#444444" d="M30.769 16.668h-23.908c-0.51 0-0.923-0.414-0.923-0.923s0.414-0.923 0.923-0.923h23.908c0.51 0 0.923 0.414 0.923 0.923s-0.414 0.923-0.923 0.923z"></path>
<path fill="#444444" d="M30.769 26.26h-23.908c-0.51 0-0.923-0.414-0.923-0.923s0.414-0.923 0.923-0.923h23.908c0.51 0 0.923 0.414 0.923 0.923s-0.414 0.923-0.923 0.923z"></path>
<path fill="#444444" d="M1.269 7.385h-0.038c-0.679 0-1.231-0.55-1.231-1.231s0.551-1.231 1.231-1.231 1.25 0.55 1.25 1.231-0.533 1.231-1.212 1.231z"></path>
<path fill="#444444" d="M1.269 16.976h-0.038c-0.679 0-1.231-0.55-1.231-1.231s0.551-1.231 1.231-1.231 1.25 0.55 1.25 1.231-0.533 1.231-1.212 1.231z"></path>
<path fill="#444444" d="M1.269 26.567h-0.038c-0.679 0-1.231-0.55-1.231-1.231s0.551-1.231 1.231-1.231 1.25 0.55 1.25 1.231-0.533 1.231-1.212 1.231z"></path>
</svg>
