<?xml version="1.0" encoding="utf-8"?>
<!-- Generated by IcoMoon.io -->
<!DOCTYPE svg PUBLIC "-//W3C//DTD SVG 1.1//EN" "http://www.w3.org/Graphics/SVG/1.1/DTD/svg11.dtd">
<svg version="1.1" xmlns="http://www.w3.org/2000/svg" xmlns:xlink="http://www.w3.org/1999/xlink" width="32" height="32" viewBox="0 0 32 32">
<path fill="#444444" d="M30.815 6.371h-29.629c-0.655 0-1.185-0.529-1.185-1.184s0.531-1.185 1.185-1.185h29.631c0.653 0 1.184 0.529 1.184 1.185s-0.531 1.184-1.185 1.184z"></path>
<path fill="#444444" d="M30.815 17.185h-29.629c-0.655 0-1.185-0.531-1.185-1.185s0.531-1.185 1.185-1.185h29.631c0.653 0 1.184 0.531 1.184 1.185s-0.531 1.185-1.185 1.185z"></path>
<path fill="#444444" d="M30.815 27.997h-29.629c-0.655 0-1.185-0.529-1.185-1.185s0.531-1.185 1.185-1.185h29.631c0.655 0 1.185 0.529 1.185 1.185s-0.532 1.185-1.187 1.185z"></path>
</svg>
