<?xml version="1.0" encoding="utf-8"?>
<!-- Generated by IcoMoon.io -->
<!DOCTYPE svg PUBLIC "-//W3C//DTD SVG 1.1//EN" "http://www.w3.org/Graphics/SVG/1.1/DTD/svg11.dtd">
<svg version="1.1" xmlns="http://www.w3.org/2000/svg" xmlns:xlink="http://www.w3.org/1999/xlink" width="32" height="32" viewBox="0 0 32 32">
<path fill="#444444" d="M16 32c-8.822 0-16-7.178-16-16s7.178-16 16-16 16 7.178 16 16-7.178 16-16 16zM16 2.462c-7.465 0-13.538 6.074-13.538 13.538s6.074 13.538 13.538 13.538 13.538-6.074 13.538-13.538-6.074-13.538-13.538-13.538z"></path>
<path fill="#444444" d="M16 24.133c-0.679 0-1.231-0.55-1.231-1.231v-8.636c0-0.681 0.551-1.231 1.231-1.231s1.231 0.55 1.231 1.231v8.636c0 0.681-0.551 1.231-1.231 1.231z"></path>
<path fill="#444444" d="M17.479 10.576c0 0.817-0.662 1.479-1.479 1.479s-1.479-0.662-1.479-1.479c0-0.817 0.662-1.479 1.479-1.479s1.479 0.662 1.479 1.479z"></path>
</svg>
