<?xml version="1.0" encoding="utf-8"?>
<!-- Generated by IcoMoon.io -->
<!DOCTYPE svg PUBLIC "-//W3C//DTD SVG 1.1//EN" "http://www.w3.org/Graphics/SVG/1.1/DTD/svg11.dtd">
<svg version="1.1" xmlns="http://www.w3.org/2000/svg" xmlns:xlink="http://www.w3.org/1999/xlink" width="32" height="32" viewBox="0 0 32 32">
<path fill="#444444" d="M16 32c-8.822 0-16-7.178-16-16s7.178-16 16-16 16 7.178 16 16-7.178 16-16 16zM16 3.019c-7.158 0-12.981 5.823-12.981 12.981s5.823 12.981 12.981 12.981 12.981-5.823 12.981-12.981-5.823-12.981-12.981-12.981z"></path>
<path fill="#444444" d="M16 24.462c-0.833 0-1.509-0.676-1.509-1.509v-7.266c0-0.833 0.676-1.509 1.509-1.509s1.509 0.676 1.509 1.509v7.266c0 0.833-0.676 1.509-1.509 1.509z"></path>
<path fill="#444444" d="M17.811 10.859c0 1-0.811 1.811-1.811 1.811s-1.811-0.811-1.811-1.811c0-1 0.811-1.811 1.811-1.811s1.811 0.811 1.811 1.811z"></path>
</svg>
