<?xml version="1.0" encoding="utf-8"?>
<!-- Generated by IcoMoon.io -->
<!DOCTYPE svg PUBLIC "-//W3C//DTD SVG 1.1//EN" "http://www.w3.org/Graphics/SVG/1.1/DTD/svg11.dtd">
<svg version="1.1" xmlns="http://www.w3.org/2000/svg" xmlns:xlink="http://www.w3.org/1999/xlink" width="32" height="32" viewBox="0 0 32 32">
<path fill="#444444" d="M16 0c-8.836 0-16 7.164-16 16s7.164 16 16 16c8.836 0 16-7.164 16-16s-7.163-16-16-16zM17.311 24.889c0 0.895-0.724 1.619-1.619 1.619-0.893 0-1.619-0.724-1.619-1.619v-0.032c0-0.893 0.725-1.619 1.619-1.619 0.895 0 1.619 0.724 1.619 1.619v0.032zM20.779 14.175c-0.665 1.009-1.545 2.043-2.639 3.099-0.509 0.509-0.819 0.967-0.927 1.373-0.047 0.173-0.083 0.389-0.111 0.645-0.073 0.709-0.671 1.249-1.383 1.249-0.813 0-1.469-0.696-1.388-1.507 0.057-0.585 0.153-1.032 0.284-1.337 0.227-0.528 0.821-1.225 1.783-2.095 0.935-1.104 1.599-1.952 1.995-2.547s0.595-1.312 0.595-2.151c0-1-0.267-1.769-0.8-2.305-0.533-0.539-1.295-0.807-2.285-0.807-0.859 0-1.589 0.233-2.193 0.7-0.397 0.307-0.664 0.709-0.8 1.207-0.139 0.505-0.6 0.853-1.124 0.853h-0.005c-1.080 0-1.753-0.861-1.383-1.876 0.263-0.72 0.699-1.351 1.311-1.86 1.099-0.915 2.499-1.372 4.196-1.372 1.859 0 3.301 0.473 4.331 1.421 1.028 0.948 1.543 2.272 1.543 3.969 0 1.216-0.333 2.329-0.999 3.339z"></path>
</svg>
