<?xml version="1.0" encoding="utf-8"?>
<!-- Generated by IcoMoon.io -->
<!DOCTYPE svg PUBLIC "-//W3C//DTD SVG 1.1//EN" "http://www.w3.org/Graphics/SVG/1.1/DTD/svg11.dtd">
<svg version="1.1" xmlns="http://www.w3.org/2000/svg" xmlns:xlink="http://www.w3.org/1999/xlink" width="32" height="32" viewBox="0 0 32 32">
<path fill="#444444" d="M16 0c-8.836 0-16 7.164-16 16s7.164 16 16 16 16-7.164 16-16-7.164-16-16-16zM26.228 17.053c-0.271 0.271-0.645 0.439-1.057 0.439h-7.668v7.676c0 0.413-0.167 0.788-0.439 1.059-0.271 0.272-0.645 0.44-1.059 0.44-0.827 0-1.497-0.671-1.497-1.499v-7.665h-7.68c-0.825 0-1.495-0.669-1.495-1.497 0-0.827 0.669-1.497 1.496-1.497h7.668v-7.677c0-0.827 0.671-1.497 1.497-1.497s1.496 0.671 1.496 1.497v7.667h7.68c0.827 0 1.496 0.671 1.496 1.497 0 0.413-0.167 0.788-0.439 1.059z"></path>
</svg>
