<?xml version="1.0" encoding="utf-8"?>
<!-- Generated by IcoMoon.io -->
<!DOCTYPE svg PUBLIC "-//W3C//DTD SVG 1.1//EN" "http://www.w3.org/Graphics/SVG/1.1/DTD/svg11.dtd">
<svg version="1.1" xmlns="http://www.w3.org/2000/svg" xmlns:xlink="http://www.w3.org/1999/xlink" width="32" height="32" viewBox="0 0 32 32">
<path fill="rgb(180, 180, 180)" d="M9.116 13.975h-6.995c-0.173 0-0.315-0.14-0.315-0.315s0.141-0.315 0.315-0.315h6.995c0.173 0 0.315 0.14 0.315 0.315s-0.141 0.315-0.315 0.315z"></path>
<path fill="rgb(180, 180, 180)" d="M9.116 16.781h-6.995c-0.173 0-0.315-0.14-0.315-0.315s0.141-0.315 0.315-0.315h6.995c0.173 0 0.315 0.14 0.315 0.315s-0.141 0.315-0.315 0.315z"></path>
<path fill="rgb(180, 180, 180)" d="M9.116 19.587h-6.995c-0.173 0-0.315-0.14-0.315-0.315s0.141-0.315 0.315-0.315h6.995c0.173 0 0.315 0.14 0.315 0.315s-0.141 0.315-0.315 0.315z"></path>
<path fill="rgb(180, 180, 180)" d="M0.485 14.133h-0.011c-0.261 0-0.472-0.211-0.472-0.472s0.211-0.473 0.472-0.473 0.479 0.211 0.479 0.472-0.207 0.473-0.468 0.473z"></path>
<path fill="rgb(180, 180, 180)" d="M0.485 16.939h-0.011c-0.261 0-0.472-0.211-0.472-0.472s0.211-0.473 0.472-0.473 0.479 0.211 0.479 0.473-0.207 0.472-0.468 0.472z"></path>
<path fill="rgb(180, 180, 180)" d="M0.485 19.745h-0.011c-0.261 0-0.472-0.211-0.472-0.472s0.211-0.473 0.472-0.473 0.479 0.211 0.479 0.472-0.207 0.473-0.468 0.473z"></path>
<path fill="rgb(181, 192, 208)" d="M17.985 9.048h11.74c1.045 0 1.891 0.847 1.891 1.892v10.533c0 1.044-0.847 1.891-1.891 1.891h-11.74c-1.044 0-1.891-0.847-1.891-1.891v-10.533c-0.001-1.045 0.847-1.892 1.891-1.892z"></path>
<path fill="rgb(69, 98, 137)" d="M29.724 23.747h-11.74c-1.253 0-2.273-1.020-2.273-2.272v-10.533c0-1.253 1.020-2.273 2.273-2.273h11.74c1.253 0 2.273 1.020 2.273 2.273v10.533c0 1.252-1.020 2.272-2.273 2.272zM17.985 9.429c-0.833 0-1.509 0.677-1.509 1.511v10.533c0 0.832 0.677 1.509 1.509 1.509h11.74c0.833 0 1.509-0.677 1.509-1.509v-10.533c0-0.833-0.677-1.511-1.509-1.511h-11.74z"></path>
<path fill="rgb(69, 98, 137)" d="M23.087 16.091h-3.897c-0.173 0-0.315-0.14-0.315-0.315v-3.897c0-0.175 0.141-0.315 0.315-0.315h3.897c0.173 0 0.315 0.14 0.315 0.315v3.897c0 0.175-0.141 0.315-0.315 0.315zM19.504 15.461h3.268v-3.267h-3.268v3.267z"></path>
<path fill="rgb(69, 98, 137)" d="M28.521 16.091h-3.897c-0.173 0-0.315-0.14-0.315-0.315v-3.897c0-0.175 0.141-0.315 0.315-0.315h3.897c0.173 0 0.315 0.14 0.315 0.315v3.897c0 0.175-0.141 0.315-0.315 0.315zM24.939 15.461h3.268v-3.267h-3.268v3.267z"></path>
<path fill="rgb(69, 98, 137)" d="M23.087 21.395h-3.897c-0.173 0-0.315-0.14-0.315-0.315v-3.897c0-0.175 0.141-0.315 0.315-0.315h3.897c0.173 0 0.315 0.14 0.315 0.315v3.897c0 0.173-0.141 0.315-0.315 0.315zM19.504 20.764h3.268v-3.267h-3.268v3.267z"></path>
<path fill="rgb(69, 98, 137)" d="M28.521 21.395h-3.897c-0.173 0-0.315-0.14-0.315-0.315v-3.897c0-0.175 0.141-0.315 0.315-0.315h3.897c0.173 0 0.315 0.14 0.315 0.315v3.897c0 0.173-0.141 0.315-0.315 0.315zM24.939 20.764h3.268v-3.267h-3.268v3.267z"></path>
</svg>
