<?xml version="1.0" encoding="utf-8"?>
<!-- Generated by IcoMoon.io -->
<!DOCTYPE svg PUBLIC "-//W3C//DTD SVG 1.1//EN" "http://www.w3.org/Graphics/SVG/1.1/DTD/svg11.dtd">
<svg version="1.1" xmlns="http://www.w3.org/2000/svg" xmlns:xlink="http://www.w3.org/1999/xlink" width="32" height="32" viewBox="0 0 32 32">
<path fill="#444444" d="M25.011 31.407h-18.406c-2.662 0-4.827-2.167-4.827-4.828v-21.752c0-2.662 2.165-4.827 4.827-4.827h11.061c0.792 0 1.549 0.295 2.132 0.83l9.016 8.264c0.649 0.597 1.023 1.445 1.023 2.327v15.159c0.001 2.662-2.164 4.828-4.826 4.828zM6.605 2.963c-1.028 0-1.864 0.837-1.864 1.864v21.752c0 1.029 0.837 1.865 1.864 1.865h18.406c1.029 0 1.864-0.837 1.864-1.865v-15.159c0-0.055-0.023-0.105-0.063-0.142l-9.016-8.264c-0.036-0.033-0.082-0.051-0.129-0.051h-11.063z"></path>
<path fill="#444444" d="M27.938 12.166h-6.274c-2.662 0-4.827-2.167-4.827-4.828v-5.856h2.963v5.855c0 1.029 0.837 1.865 1.864 1.865h6.274v2.964z"></path>
</svg>
