<?xml version="1.0" encoding="utf-8"?>
<!-- Generated by IcoMoon.io -->
<!DOCTYPE svg PUBLIC "-//W3C//DTD SVG 1.1//EN" "http://www.w3.org/Graphics/SVG/1.1/DTD/svg11.dtd">
<svg version="1.1" xmlns="http://www.w3.org/2000/svg" xmlns:xlink="http://www.w3.org/1999/xlink" width="32" height="32" viewBox="0 0 32 32">
<path fill="rgb(181, 192, 208)" d="M26.902 29.903h-21.742c-2.332 0-4.223-1.891-4.223-4.223v-15.214h30.188v15.215c0 2.331-1.891 4.221-4.223 4.221z"></path>
<path fill="rgb(69, 98, 137)" d="M26.198 30.793h-20.438c-3.176 0-5.76-2.584-5.76-5.76v-18.633c0-3.176 2.584-5.76 5.76-5.76h20.438c3.176 0 5.76 2.584 5.76 5.76v18.633c0 3.176-2.584 5.76-5.76 5.76zM5.76 1.92c-2.47 0-4.48 2.010-4.48 4.48v18.633c0 2.47 2.010 4.48 4.48 4.48h20.438c2.47 0 4.48-2.010 4.48-4.48v-18.633c0-2.47-2.010-4.48-4.48-4.48h-20.438z"></path>
<path fill="rgb(69, 98, 137)" d="M31.36 11.107h-30.423c-0.353 0-0.64-0.287-0.64-0.64s0.287-0.64 0.64-0.64h30.423c0.353 0 0.64 0.287 0.64 0.64s-0.287 0.64-0.64 0.64z"></path>
</svg>
