<?xml version="1.0" encoding="utf-8"?>
<!-- Generated by IcoMoon.io -->
<!DOCTYPE svg PUBLIC "-//W3C//DTD SVG 1.1//EN" "http://www.w3.org/Graphics/SVG/1.1/DTD/svg11.dtd">
<svg version="1.1" xmlns="http://www.w3.org/2000/svg" xmlns:xlink="http://www.w3.org/1999/xlink" width="32" height="32" viewBox="0 0 32 32">
<path fill="#444444" d="M25.738 30.811c-1.667 0-3.267-0.576-4.535-1.608-2.048 1.055-4.327 1.608-6.655 1.608-8.023 0-14.549-6.526-14.549-14.549s6.526-14.549 14.549-14.549 14.549 6.527 14.549 14.549c0 2.702-0.736 5.311-2.133 7.587 0.376 1.427 1.302 2.638 2.597 3.37l2.051 1.163-1.979 1.28c-1.161 0.75-2.507 1.147-3.895 1.147zM21.702 25.589l0.797 0.909c0.867 0.987 2.162 1.519 3.49 1.451-1.011-1.155-1.694-2.581-1.952-4.143l-0.093-0.56 0.318-0.471c1.295-1.921 1.978-4.171 1.978-6.51 0-6.447-5.245-11.691-11.691-11.691s-11.691 5.243-11.691 11.689 5.245 11.691 11.691 11.691c2.174 0 4.291-0.598 6.126-1.731l1.027-0.634z"></path>
</svg>
