<?xml version="1.0" encoding="utf-8"?>
<!-- Generator: Adobe Illustrator 16.0.0, SVG Export Plug-In . SVG Version: 6.00 Build 0)  -->
<!DOCTYPE svg PUBLIC "-//W3C//DTD SVG 1.1//EN" "http://www.w3.org/Graphics/SVG/1.1/DTD/svg11.dtd">
<svg version="1.1" id="Layer_1" xmlns="http://www.w3.org/2000/svg" xmlns:xlink="http://www.w3.org/1999/xlink" x="0px" y="0px"
	 width="792px" height="612px" viewBox="0 0 792 612" enable-background="new 0 0 792 612" xml:space="preserve">
<g>
	<defs>
		<rect id="SVGID_1_" width="792" height="612"/>
	</defs>
	<clipPath id="SVGID_2_">
		<use xlink:href="#SVGID_1_"  overflow="visible"/>
	</clipPath>
	<path clip-path="url(#SVGID_2_)" fill="#456189" d="M752.615,306.14c-7.212,0-13.005,2.098-17.378,6.286
		c-4.376,4.192-6.562,9.493-6.562,15.901v33.647h-14.717v-70.995l14.615,0.031l-0.057,20.157c0,0,2.847-6.599,5.036-9.002
		c2.187-2.405,4.491-4.438,6.915-6.101c2.422-1.665,4.788-2.928,7.093-3.791c2.307-0.861,4.346-1.294,6.118-1.294L752.615,306.14z"
		/>
	<path clip-path="url(#SVGID_2_)" fill="#AB3334" d="M202.699,300.863c-3.285-3.223-7.209-5.818-11.662-7.715
		c-4.455-1.891-9.308-2.85-14.422-2.85c-4.995,0-9.755,0.959-14.148,2.853c-4.388,1.89-8.282,4.485-11.571,7.712
		c-3.301,3.238-5.93,7.104-7.815,11.491c-1.89,4.385-2.848,9.087-2.848,13.969c0,5.005,0.958,9.738,2.848,14.064
		c1.885,4.325,4.514,8.157,7.815,11.397c3.297,3.235,7.19,5.828,11.571,7.707c4.387,1.896,9.147,2.857,14.148,2.857
		c5.118,0,9.971-0.961,14.422-2.854c4.448-1.886,8.372-4.479,11.663-7.71c3.296-3.24,5.922-7.074,7.805-11.395
		c1.896-4.332,2.857-9.065,2.857-14.067c0-4.875-0.961-9.573-2.857-13.968C208.624,307.969,205.998,304.104,202.699,300.863
		 M176.436,302.844c3.238,0,6.31,0.613,9.13,1.823c2.825,1.211,5.343,2.909,7.484,5.046c2.13,2.131,3.828,4.679,5.045,7.572
		c1.212,2.887,1.827,5.989,1.827,9.223c0,3.229-0.613,6.3-1.823,9.123c-1.213,2.824-2.91,5.311-5.042,7.386
		c-2.131,2.076-4.651,3.747-7.491,4.965c-2.82,1.21-5.892,1.823-9.13,1.823c-3.241,0-6.312-0.613-9.128-1.823
		c-2.835-1.212-5.355-2.884-7.49-4.967c-2.134-2.068-3.831-4.553-5.044-7.384c-1.21-2.814-1.824-5.883-1.824-9.123
		c0-3.241,0.615-6.345,1.827-9.223c1.214-2.894,2.912-5.441,5.047-7.572c2.145-2.144,4.664-3.841,7.484-5.046
		C170.123,303.457,173.194,302.844,176.436,302.844"/>
	<path clip-path="url(#SVGID_2_)" fill="#AB3334" d="M144.917,258.694c-2.811-4.271-6.365-7.824-10.562-10.563
		c-4.195-2.731-8.717-4.761-13.44-6.032c-4.721-1.271-9.146-1.915-13.151-1.915l-25.416,0.005c-0.89-0.114-1.523-0.294-1.88-0.534
		c-0.545-0.373-0.822-1.253-0.822-2.616v-2.906H66.742v7.138c0,3.655,1.285,6.478,3.821,8.392c2.449,1.85,5.623,2.792,9.438,2.801
		l0.017,0.073l27.925-0.17c4.086,0,7.931,0.62,11.428,1.843c3.49,1.221,6.527,2.87,9.026,4.9c2.477,2.018,4.467,4.389,5.916,7.047
		c1.426,2.637,2.149,5.415,2.149,8.256c0,2.549-0.441,5.22-1.312,7.939c-0.852,2.686-2.364,5.186-4.491,7.429
		c-2.129,2.243-5.088,4.114-8.795,5.561c-3.727,1.456-8.471,2.195-14.099,2.195H91.474V261.5H78.751v99.462h12.722v-51.063h18.987
		c12.504,0,22.186-3.25,28.777-9.658c6.603-6.427,9.951-15.117,9.951-25.828C149.188,268.303,147.751,263.014,144.917,258.694"/>
	<path clip-path="url(#SVGID_2_)" fill="#AB3334" d="M295.602,349.632c-0.124-0.181-0.422-0.908-0.514-3.808V240.296h-12.723
		l0.015,57.405c0.166,0.906,0.327,1.825,0.517,2.954c-0.212-0.241-0.444-0.493-0.702-0.763c-1.538-1.598-3.498-3.123-5.826-4.535
		c-2.329-1.404-5.016-2.609-7.985-3.581c-3.012-0.981-6.27-1.478-9.682-1.478c-5.116,0-9.968,0.959-14.422,2.852
		c-4.452,1.892-8.349,4.521-11.583,7.815c-3.222,3.286-5.817,7.146-7.713,11.473c-1.889,4.329-2.846,9.003-2.846,13.885
		c0,4.889,0.957,9.56,2.846,13.89c1.892,4.318,4.487,8.18,7.713,11.475c3.243,3.301,7.14,5.927,11.583,7.806
		c4.453,1.896,9.305,2.856,14.422,2.856c3.648,0,7.051-0.465,10.113-1.383c3.048-0.915,5.74-2.062,8.002-3.409
		c2.278-1.353,4.151-2.821,5.568-4.368c0.464-0.504,0.867-0.99,1.229-1.476c0.004,0.11,0.008,0.228,0.013,0.349
		c0.012,0.339,0.026,0.706,0.041,1.016l0.006,0.367l0.054-0.025c0.337,2.001,0.644,3.344,1.859,4.925
		c1.839,2.392,5.332,4.001,8.691,4.001h6.727v-11.984h-3.021C296.739,350.361,295.938,350.114,295.602,349.632 M258.702,349.805
		c-3.483,0-6.707-0.614-9.583-1.826c-2.885-1.208-5.403-2.876-7.482-4.955c-2.078-2.079-3.714-4.562-4.861-7.38
		c-1.153-2.815-1.738-5.952-1.738-9.32c0-3.239,0.585-6.349,1.738-9.234c1.156-2.887,2.792-5.397,4.861-7.467
		c2.089-2.084,4.606-3.75,7.483-4.955c2.875-1.211,6.098-1.824,9.582-1.824c3.362,0,6.525,0.613,9.401,1.824
		c2.891,1.217,5.408,2.883,7.482,4.952c2.073,2.079,3.739,4.597,4.95,7.482c1.214,2.899,1.83,6.001,1.83,9.222
		c0,3.351-0.615,6.48-1.825,9.308c-1.214,2.832-2.881,5.318-4.955,7.393c-2.07,2.073-4.587,3.74-7.483,4.955
		C265.227,349.19,262.064,349.805,258.702,349.805"/>
	<path clip-path="url(#SVGID_2_)" fill="#456189" d="M451.81,341.127l-0.123,0.001l-0.229,0.349
		c-2.942,4.478-7.326,6.317-7.82,6.514c-2.511,1.171-5.271,1.845-8.204,2c-2.942,0.154-5.916-0.308-8.841-1.371
		c-4.241-1.544-7.706-3.925-10.295-7.077c-1.754-2.125-3.102-4.542-4.012-7.199l-0.133-0.22c-0.227-0.758-0.423-1.592-0.603-2.552
		c-0.017-0.102-0.044-0.203-0.065-0.287l-0.064-0.392c-0.574-3.615-0.328-7.3,0.709-10.654l0.297-0.96
		c0.236-0.648,0.54-1.363,0.985-2.318c0.443-1.058,0.981-2.112,1.6-3.133c2.647-4.552,6.59-7.78,11.717-9.591
		c5.14-1.809,10.499-1.724,15.928,0.252c3.219,1.171,5.864,3.117,7.864,5.785c1.836,2.46,3.103,5.249,3.766,8.29
		c-3.943,0.072-11.026,0.171-17.28,0.258l-0.956,0.012c-4.619,0.064-9.396,0.131-11.487,0.168l-0.39,0.01l-0.226,0.312
		c-2.862,3.893-2.235,9.146,0.023,11.976l0.243,0.306l42.907-0.663l0.209-0.003l0.062-0.711c0.339-4.142,0.13-8.247-0.625-12.201
		c-0.76-3.968-2.017-7.646-3.738-10.93c-1.722-3.284-3.957-6.208-6.644-8.69c-2.696-2.487-5.874-4.407-9.439-5.705
		c-4.694-1.708-9.498-2.435-14.278-2.159c-4.768,0.277-9.311,1.384-13.506,3.29c-4.194,1.906-7.985,4.639-11.267,8.125
		c-3.271,3.462-5.778,7.552-7.453,12.155c-1.721,4.725-2.438,9.499-2.135,14.19c0.294,4.726,1.449,9.227,3.436,13.379
		c1.998,4.169,4.767,7.938,8.235,11.199c3.482,3.286,7.63,5.817,12.324,7.526c4.363,1.588,8.766,2.265,13.085,2.014
		c4.433-0.254,7.912-0.837,12.578-3.068c11.251-5.379,16.518-16.818,16.736-17.305l0.486-1.12L451.81,341.127z"/>
	<path clip-path="url(#SVGID_2_)" fill="#456189" d="M528,341.127l-0.123,0.001l-0.229,0.349c-2.943,4.478-7.326,6.317-7.82,6.514
		c-2.511,1.171-5.271,1.845-8.205,2c-2.941,0.154-5.916-0.308-8.84-1.371c-4.242-1.544-7.706-3.925-10.295-7.077
		c-1.754-2.125-3.102-4.542-4.012-7.199l-0.133-0.22c-0.227-0.758-0.423-1.592-0.603-2.552c-0.017-0.102-0.044-0.203-0.065-0.287
		l-0.064-0.392c-0.574-3.615-0.328-7.3,0.709-10.654l0.297-0.96c0.236-0.648,0.54-1.363,0.985-2.318
		c0.443-1.058,0.98-2.112,1.6-3.133c2.647-4.552,6.589-7.78,11.717-9.591c5.14-1.809,10.499-1.724,15.928,0.252
		c3.219,1.171,5.864,3.117,7.864,5.785c1.836,2.46,3.103,5.249,3.766,8.29c-3.943,0.072-11.026,0.171-17.28,0.258l-0.956,0.012
		c-4.619,0.064-9.396,0.131-11.487,0.168l-0.39,0.01l-0.226,0.312c-2.862,3.893-2.235,9.146,0.023,11.976l0.243,0.306l42.907-0.663
		l0.209-0.003l0.061-0.711c0.341-4.142,0.132-8.247-0.624-12.201c-0.759-3.968-2.016-7.646-3.737-10.93
		c-1.723-3.284-3.957-6.208-6.644-8.69c-2.696-2.487-5.874-4.407-9.439-5.705c-4.694-1.708-9.498-2.435-14.278-2.159
		c-4.768,0.277-9.311,1.384-13.506,3.29c-4.194,1.906-7.985,4.639-11.267,8.125c-3.271,3.462-5.778,7.552-7.453,12.155
		c-1.721,4.725-2.438,9.499-2.136,14.19c0.294,4.726,1.45,9.227,3.437,13.379c1.998,4.169,4.767,7.938,8.235,11.199
		c3.482,3.286,7.63,5.817,12.324,7.526c4.362,1.588,8.766,2.265,13.085,2.014c4.433-0.254,7.912-0.837,12.578-3.068
		c11.251-5.379,16.518-16.818,16.736-17.305l0.486-1.12L528,341.127z"/>
	<path clip-path="url(#SVGID_2_)" fill="#456189" d="M553.992,303.715c0.124,0.18,0.422,0.908,0.515,3.807v96.445h12.723
		l-0.015-48.322c-0.166-0.906-0.327-1.825-0.518-2.954c0.212,0.241,0.444,0.493,0.702,0.763c1.538,1.598,3.498,3.123,5.826,4.535
		c2.329,1.404,5.016,2.609,7.985,3.581c3.012,0.98,6.27,1.478,9.682,1.478c5.116,0,9.968-0.959,14.422-2.852
		c4.452-1.892,8.349-4.521,11.583-7.815c3.222-3.285,5.817-7.146,7.712-11.473c1.891-4.329,2.847-9.003,2.847-13.885
		c0-4.889-0.956-9.56-2.847-13.89c-1.891-4.318-4.486-8.18-7.712-11.475c-3.243-3.301-7.14-5.927-11.583-7.806
		c-4.453-1.895-9.305-2.856-14.422-2.856c-3.648,0-7.051,0.465-10.114,1.383c-3.047,0.915-5.739,2.061-8.001,3.409
		c-2.277,1.352-4.15,2.821-5.568,4.368c-0.464,0.504-0.867,0.99-1.229,1.476c-0.005-0.111-0.008-0.228-0.013-0.349
		c-0.013-0.339-0.026-0.706-0.041-1.016l-0.006-0.367l-0.055,0.026c-0.337-2.001-0.644-3.345-1.858-4.925
		c-1.84-2.392-5.332-4.001-8.691-4.001h-6.727v11.984h3.021C552.855,302.985,553.656,303.232,553.992,303.715 M590.893,303.542
		c3.482,0,6.707,0.614,9.583,1.826c2.885,1.208,5.403,2.876,7.481,4.955s3.715,4.562,4.86,7.38c1.154,2.815,1.739,5.952,1.739,9.32
		c0,3.24-0.585,6.349-1.739,9.234c-1.155,2.887-2.791,5.397-4.86,7.467c-2.089,2.084-4.605,3.751-7.482,4.953
		c-2.875,1.213-6.098,1.825-9.582,1.825c-3.362,0-6.525-0.612-9.401-1.825c-2.891-1.216-5.409-2.882-7.481-4.95
		c-2.073-2.079-3.739-4.597-4.95-7.482c-1.214-2.898-1.83-6.001-1.83-9.222c0-3.351,0.614-6.48,1.825-9.308
		c1.214-2.832,2.881-5.318,4.955-7.393c2.069-2.073,4.587-3.74,7.482-4.955C584.367,304.156,587.53,303.542,590.893,303.542"/>
	<path clip-path="url(#SVGID_2_)" fill="#456189" d="M687.283,341.366l-0.123,0.001l-0.229,0.349
		c-2.942,4.478-7.325,6.317-7.819,6.514c-2.512,1.171-5.272,1.845-8.205,2c-2.942,0.153-5.916-0.308-8.84-1.371
		c-4.242-1.544-7.706-3.925-10.295-7.077c-1.755-2.125-3.103-4.542-4.013-7.199l-0.133-0.22c-0.226-0.758-0.423-1.592-0.602-2.552
		c-0.018-0.102-0.044-0.203-0.066-0.287l-0.064-0.392c-0.573-3.615-0.327-7.3,0.709-10.654l0.298-0.96
		c0.235-0.648,0.54-1.363,0.984-2.318c0.443-1.058,0.981-2.112,1.601-3.133c2.646-4.552,6.589-7.78,11.716-9.591
		c5.14-1.809,10.499-1.724,15.928,0.252c3.219,1.171,5.864,3.117,7.864,5.786c1.836,2.46,3.103,5.249,3.766,8.289
		c-3.942,0.073-11.025,0.172-17.28,0.259l-0.955,0.012c-4.619,0.064-9.397,0.131-11.488,0.168l-0.389,0.01l-0.227,0.312
		c-2.862,3.893-2.235,9.146,0.024,11.976l0.243,0.305l42.906-0.662l0.209-0.004l0.062-0.71c0.339-4.142,0.13-8.248-0.625-12.201
		c-0.759-3.968-2.017-7.646-3.738-10.93c-1.722-3.284-3.957-6.208-6.643-8.691c-2.697-2.487-5.873-4.407-9.44-5.705
		c-4.694-1.708-9.498-2.435-14.278-2.159c-4.768,0.277-9.311,1.384-13.506,3.29c-4.193,1.906-7.984,4.639-11.267,8.125
		c-3.271,3.462-5.778,7.552-7.453,12.155c-1.72,4.725-2.438,9.499-2.135,14.19c0.294,4.726,1.45,9.227,3.436,13.379
		c1.998,4.169,4.768,7.938,8.235,11.199c3.482,3.286,7.63,5.817,12.325,7.526c4.362,1.588,8.765,2.265,13.085,2.014
		c4.432-0.254,7.912-0.837,12.578-3.068c11.251-5.379,16.517-16.818,16.735-17.305l0.486-1.12L687.283,341.366z"/>
	<path clip-path="url(#SVGID_2_)" fill="#456189" d="M405.962,362.03H388.79c-8.325-10.521-16.594-21.015-24.803-31.481
		c-8.211-10.463-16.478-20.957-24.803-31.479c-1.851,1.733-3.642,3.442-5.377,5.117c-1.734,1.676-3.529,3.382-5.377,5.115v52.729
		h-14.396V240.615h14.396v47.527c-0.117,0.926-0.203,1.851-0.26,2.774c-0.06,0.928-0.147,1.851-0.26,2.776
		c0.577-0.694,1.128-1.358,1.647-1.995c0.521-0.634,1.068-1.302,1.648-1.995c8.673-8.208,17.258-16.39,25.757-24.543
		c8.499-8.152,17.085-16.331,25.757-24.544h17.693c-8.673,8.326-17.288,16.538-25.845,24.631
		c-8.558,8.095-17.171,16.304-25.844,24.629c9.597,12.141,19.137,24.169,28.62,36.078
		C386.823,337.863,396.362,349.889,405.962,362.03"/>
	<path clip-path="url(#SVGID_2_)" fill="#A1C23A" d="M249.491,253.855c0,19.49-16.051,35.291-35.85,35.291
		s-35.85-15.801-35.85-35.291c0-19.49,16.051-35.291,35.85-35.291S249.491,234.365,249.491,253.855"/>
	<path clip-path="url(#SVGID_2_)" fill="#FFFFFF" d="M204.197,231.237l-1.211,3.964c0,0,8.371,6.298,7.784,8.829
		c0,0,0.503,6.456-3.83,16.017h3.902c0,0,3.652-22.142,7.294,0.906l3.273-0.705c0,0-4.525-12.912-4.088-16.218
		c0,0-1.154-2.387,6.426-9.24l-0.94-3.553C222.807,231.237,214.764,247.012,204.197,231.237"/>
	<path clip-path="url(#SVGID_2_)" fill="#FFFFFF" d="M217.014,233.848c0,1.653-1.34,2.993-2.993,2.993
		c-1.652,0-2.992-1.34-2.992-2.993s1.34-2.993,2.992-2.993C215.674,230.855,217.014,232.195,217.014,233.848"/>
	<path clip-path="url(#SVGID_2_)" fill="#FFFFFF" d="M204.349,246.219c0,0-1.309-2.415-1.309-3.019c0,0-2.619,6.642-10.942,6.24
		c0,0-5.05-1.913-8.51,9.359c0,0,1.403,0.906,1.777,1.913c0,0,3.81-11.525,4.008-6.182c0.046,1.243,0.429,4.06-0.641,7.188
		l-1.862,9.868l3.072-0.223c0,0,2.25-21.923,6.177,0.118h3.902c0,0-5.865-14.124-3.34-17.076
		C196.681,254.405,198.177,251.151,204.349,246.219"/>
	<path clip-path="url(#SVGID_2_)" fill="#FFFFFF" d="M196.961,245.079c0,1.653-1.34,2.993-2.993,2.993
		c-1.652,0-2.992-1.34-2.992-2.993c0-1.653,1.34-2.993,2.992-2.993C195.621,242.086,196.961,243.426,196.961,245.079"/>
	<path clip-path="url(#SVGID_2_)" fill="#FFFFFF" d="M222.933,246.219c0,0,1.309-2.415,1.309-3.019c0,0,2.619,6.642,10.942,6.24
		c0,0,5.05-1.913,8.51,9.359c0,0-1.403,0.906-1.777,1.913c0,0-3.81-11.525-4.008-6.182c-0.046,1.243-0.429,4.06,0.641,7.188
		l1.862,9.868l-3.072-0.223c0,0-2.25-21.923-6.177,0.118h-3.902c0,0,5.865-14.124,3.34-17.076
		C230.601,254.405,229.105,251.151,222.933,246.219"/>
	<path clip-path="url(#SVGID_2_)" fill="#FFFFFF" d="M230.321,245.079c0,1.653,1.34,2.993,2.993,2.993
		c1.652,0,2.992-1.34,2.992-2.993c0-1.653-1.34-2.993-2.992-2.993C231.661,242.086,230.321,243.426,230.321,245.079"/>
</g>
</svg>
