<?xml version="1.0" encoding="utf-8"?>
<!-- Generated by IcoMoon.io -->
<!DOCTYPE svg PUBLIC "-//W3C//DTD SVG 1.1//EN" "http://www.w3.org/Graphics/SVG/1.1/DTD/svg11.dtd">
<svg version="1.1" xmlns="http://www.w3.org/2000/svg" xmlns:xlink="http://www.w3.org/1999/xlink" width="32" height="32" viewBox="0 0 32 32">
<path fill="#444444" d="M25.665 32h-19.114c-2.594 0-4.705-2.112-4.705-4.706v-22.588c0-2.594 2.111-4.705 4.705-4.705h11.487c0.746 0 1.46 0.278 2.007 0.782l9.362 8.582c0.612 0.561 0.962 1.359 0.962 2.188v15.742c0 2.594-2.111 4.706-4.705 4.706zM6.551 2.462c-1.237 0-2.244 1.007-2.244 2.244v22.588c0 1.238 1.007 2.245 2.244 2.245h19.113c1.237 0 2.245-1.007 2.245-2.245v-15.742c0-0.142-0.060-0.278-0.165-0.374l-9.364-8.583c-0.094-0.086-0.214-0.133-0.342-0.133h-11.487z"></path>
<path fill="#444444" d="M28.705 12.018h-6.516c-2.594 0-4.706-2.112-4.706-4.706v-6.081h2.462v6.080c0 1.238 1.007 2.245 2.245 2.245h6.516v2.463z"></path>
</svg>
