<?xml version="1.0" encoding="utf-8"?>
<!-- Generated by IcoMoon.io -->
<!DOCTYPE svg PUBLIC "-//W3C//DTD SVG 1.1//EN" "http://www.w3.org/Graphics/SVG/1.1/DTD/svg11.dtd">
<svg version="1.1" xmlns="http://www.w3.org/2000/svg" xmlns:xlink="http://www.w3.org/1999/xlink" width="32" height="32" viewBox="0 0 32 32">
<path fill="rgb(224, 202, 33)" d="M30.856 15.999c0 8.205-6.651 14.856-14.856 14.856s-14.856-6.651-14.856-14.856c0-8.205 6.651-14.856 14.856-14.856s14.856 6.651 14.856 14.856z"></path>
<path fill="rgb(255, 255, 255)" d="M16 31.999c-8.823 0-16-7.179-16-16s7.177-16 15.999-16c8.823 0 16 7.179 16 16s-7.177 16-15.999 16zM16 2.285c-7.561 0-13.713 6.151-13.713 13.713s6.151 13.713 13.713 13.713 13.715-6.151 13.715-13.713-6.153-13.713-13.715-13.713z"></path>
<path fill="rgb(255, 255, 255)" d="M17.144 7.653v10.347c0 0.633-0.515 1.149-1.145 1.149-0.629 0-1.145-0.517-1.145-1.149v-10.347c0-0.633 0.516-1.149 1.145-1.149 0.631 0 1.145 0.517 1.145 1.149zM16 25.495c-0.967 0-1.757-0.795-1.757-1.764s0.791-1.764 1.757-1.764 1.757 0.795 1.757 1.764-0.791 1.764-1.757 1.764z"></path>
</svg>
