<?xml version="1.0" encoding="utf-8"?>
<!-- Generated by IcoMoon.io -->
<!DOCTYPE svg PUBLIC "-//W3C//DTD SVG 1.1//EN" "http://www.w3.org/Graphics/SVG/1.1/DTD/svg11.dtd">
<svg version="1.1" xmlns="http://www.w3.org/2000/svg" xmlns:xlink="http://www.w3.org/1999/xlink" width="32" height="32" viewBox="0 0 32 32">
<path fill="rgb(181, 192, 208)" d="M2.273 9.051h11.725c1.043 0 1.889 0.845 1.889 1.888v10.521c0 1.043-0.845 1.889-1.889 1.889h-11.725c-1.043 0-1.889-0.847-1.889-1.889v-10.521c0-1.043 0.845-1.888 1.889-1.888z"></path>
<path fill="rgb(69, 98, 137)" d="M13.999 23.731h-11.725c-1.251 0-2.271-1.019-2.271-2.271v-10.521c0-1.251 1.019-2.269 2.271-2.269h11.725c1.251 0 2.271 1.019 2.271 2.269v10.521c-0.001 1.252-1.020 2.271-2.271 2.271zM2.273 9.432c-0.832 0-1.507 0.676-1.507 1.507v10.521c0 0.832 0.676 1.508 1.507 1.508h11.725c0.832 0 1.507-0.676 1.507-1.508v-10.521c0-0.831-0.676-1.507-1.507-1.507h-11.725z"></path>
<path fill="rgb(69, 98, 137)" d="M12.353 13.864h-6.985c-0.173 0-0.315-0.14-0.315-0.315s0.141-0.315 0.315-0.315h6.985c0.173 0 0.315 0.14 0.315 0.315s-0.141 0.315-0.315 0.315z"></path>
<path fill="rgb(69, 98, 137)" d="M12.353 16.667h-6.985c-0.173 0-0.315-0.14-0.315-0.315s0.141-0.315 0.315-0.315h6.985c0.173 0 0.315 0.14 0.315 0.315s-0.141 0.315-0.315 0.315z"></path>
<path fill="rgb(69, 98, 137)" d="M12.353 19.469h-6.985c-0.173 0-0.315-0.14-0.315-0.315s0.141-0.315 0.315-0.315h6.985c0.173 0 0.315 0.14 0.315 0.315s-0.141 0.315-0.315 0.315z"></path>
<path fill="rgb(69, 98, 137)" d="M3.733 14.023h-0.011c-0.261 0-0.472-0.212-0.472-0.472s0.211-0.472 0.472-0.472 0.477 0.211 0.477 0.471-0.205 0.473-0.467 0.473z"></path>
<path fill="rgb(69, 98, 137)" d="M3.733 16.824h-0.011c-0.261 0-0.472-0.212-0.472-0.472s0.211-0.472 0.472-0.472 0.477 0.211 0.477 0.472-0.205 0.472-0.467 0.472z"></path>
<path fill="rgb(69, 98, 137)" d="M3.733 19.627h-0.011c-0.261 0-0.472-0.212-0.472-0.472s0.211-0.472 0.472-0.472 0.477 0.211 0.477 0.471-0.205 0.473-0.467 0.473z"></path>
<path fill="rgb(180, 180, 180)" d="M26.253 16.084h-3.893c-0.173 0-0.315-0.14-0.315-0.315v-3.893c0-0.175 0.141-0.315 0.315-0.315h3.893c0.173 0 0.315 0.14 0.315 0.315v3.893c0.001 0.175-0.14 0.315-0.315 0.315zM22.676 15.455h3.263v-3.263h-3.263v3.263z"></path>
<path fill="rgb(180, 180, 180)" d="M31.681 16.084h-3.892c-0.173 0-0.315-0.14-0.315-0.315v-3.893c0-0.175 0.141-0.315 0.315-0.315h3.892c0.173 0 0.315 0.14 0.315 0.315v3.893c0.001 0.175-0.14 0.315-0.315 0.315zM28.104 15.455h3.263v-3.263h-3.263v3.263z"></path>
<path fill="rgb(180, 180, 180)" d="M26.253 21.381h-3.893c-0.173 0-0.315-0.14-0.315-0.315v-3.893c0-0.175 0.141-0.315 0.315-0.315h3.893c0.173 0 0.315 0.14 0.315 0.315v3.893c0.001 0.175-0.14 0.315-0.315 0.315zM22.676 20.751h3.263v-3.263h-3.263v3.263z"></path>
<path fill="rgb(180, 180, 180)" d="M31.681 21.381h-3.892c-0.173 0-0.315-0.14-0.315-0.315v-3.893c0-0.175 0.141-0.315 0.315-0.315h3.892c0.173 0 0.315 0.14 0.315 0.315v3.893c0.001 0.175-0.14 0.315-0.315 0.315zM28.104 20.751h3.263v-3.263h-3.263v3.263z"></path>
</svg>
