<?xml version="1.0" encoding="utf-8"?>
<!-- Generator: Adobe Illustrator 16.0.0, SVG Export Plug-In . SVG Version: 6.00 Build 0)  -->
<!DOCTYPE svg PUBLIC "-//W3C//DTD SVG 1.1//EN" "http://www.w3.org/Graphics/SVG/1.1/DTD/svg11.dtd">
<svg version="1.1" id="Layer_1" xmlns="http://www.w3.org/2000/svg" xmlns:xlink="http://www.w3.org/1999/xlink" x="0px" y="0px"
	 width="559px" height="64.976px" viewBox="0 0 559 64.976" enable-background="new 0 0 559 64.976" xml:space="preserve">
<g>
	<path fill="#FFFFFF" d="M541.393,62.975H18.659c-8.91,0-16.133-7.223-16.133-16.133V17.521c0-8.91,7.223-16.133,16.133-16.133
		h522.734c8.91,0,16.133,7.223,16.133,16.133v29.321C557.526,55.752,550.303,62.975,541.393,62.975z"/>
	<path fill="#336298" d="M541.393,63.475H18.659c-9.172,0-16.633-7.462-16.633-16.633V17.521c0-9.171,7.461-16.633,16.633-16.633
		h522.734c9.171,0,16.633,7.461,16.633,16.633v29.321C558.026,56.013,550.564,63.475,541.393,63.475z M18.659,1.888
		c-8.62,0-15.633,7.013-15.633,15.633v29.321c0,8.62,7.013,15.633,15.633,15.633h522.734c8.62,0,15.633-7.013,15.633-15.633V17.521
		c0-8.62-7.013-15.633-15.633-15.633H18.659z"/>
</g>
<g>
	<path fill="#3C579E" d="M175.4,24.31c-1.726,0-3.088,0.575-4.087,1.724c-0.999,1.15-1.499,2.724-1.499,4.722
		c0,2.056,0.481,3.643,1.445,4.764c0.963,1.121,2.336,1.682,4.12,1.682c1.096,0,2.345-0.197,3.749-0.592v1.602
		c-1.089,0.408-2.432,0.611-4.028,0.611c-2.313,0-4.098-0.701-5.355-2.105c-1.257-1.402-1.885-3.398-1.885-5.983
		c0-1.618,0.302-3.036,0.908-4.254c0.605-1.218,1.479-2.155,2.621-2.814c1.142-0.659,2.487-0.988,4.034-0.988
		c1.647,0,3.086,0.301,4.318,0.902l-0.773,1.568C177.777,24.589,176.588,24.31,175.4,24.31z"/>
	<path fill="#3C579E" d="M192.448,32.71c0,1.918-0.483,3.418-1.45,4.495c-0.967,1.078-2.303,1.617-4.007,1.617
		c-1.053,0-1.987-0.246-2.804-0.74s-1.447-1.203-1.891-2.127c-0.444-0.924-0.666-2.006-0.666-3.245c0-1.919,0.479-3.414,1.439-4.485
		c0.959-1.07,2.292-1.605,3.996-1.605c1.647,0,2.956,0.548,3.926,1.644C191.962,29.359,192.448,30.841,192.448,32.71z
		 M183.478,32.71c0,1.504,0.301,2.649,0.902,3.438c0.602,0.787,1.486,1.182,2.653,1.182c1.167,0,2.053-0.393,2.659-1.178
		c0.605-0.783,0.908-1.932,0.908-3.442c0-1.497-0.303-2.634-0.908-3.411c-0.605-0.776-1.499-1.165-2.68-1.165
		c-1.167,0-2.048,0.383-2.643,1.149C183.775,30.05,183.478,31.192,183.478,32.71z"/>
	<path fill="#3C579E" d="M203.63,38.607v-7.616c0-0.96-0.219-1.676-0.655-2.148c-0.437-0.473-1.121-0.709-2.052-0.709
		c-1.232,0-2.134,0.333-2.707,0.999c-0.573,0.666-0.859,1.766-0.859,3.298v6.176h-1.783V26.834h1.45l0.29,1.611h0.086
		c0.365-0.58,0.877-1.029,1.536-1.348c0.659-0.319,1.393-0.479,2.202-0.479c1.418,0,2.485,0.342,3.201,1.025
		c0.716,0.685,1.074,1.778,1.074,3.282v7.68H203.63z"/>
	<path fill="#3C579E" d="M217.133,38.607v-7.616c0-0.96-0.219-1.676-0.655-2.148c-0.437-0.473-1.121-0.709-2.052-0.709
		c-1.232,0-2.134,0.333-2.707,0.999c-0.573,0.666-0.859,1.766-0.859,3.298v6.176h-1.783V26.834h1.45l0.29,1.611h0.086
		c0.365-0.58,0.877-1.029,1.536-1.348c0.659-0.319,1.393-0.479,2.202-0.479c1.418,0,2.485,0.342,3.201,1.025
		c0.716,0.685,1.074,1.778,1.074,3.282v7.68H217.133z"/>
	<path fill="#3C579E" d="M227.553,38.822c-1.74,0-3.114-0.529-4.12-1.59c-1.006-1.059-1.509-2.531-1.509-4.415
		c0-1.897,0.467-3.405,1.402-4.522s2.189-1.676,3.765-1.676c1.476,0,2.643,0.485,3.502,1.455c0.859,0.971,1.289,2.251,1.289,3.841
		v1.127h-8.11c0.036,1.383,0.385,2.432,1.047,3.148c0.662,0.715,1.595,1.074,2.798,1.074c1.268,0,2.521-0.266,3.76-0.795v1.59
		c-0.63,0.271-1.227,0.467-1.788,0.584C229.027,38.764,228.348,38.822,227.553,38.822z M227.07,28.113
		c-0.945,0-1.699,0.308-2.261,0.924c-0.562,0.616-0.894,1.468-0.994,2.557h6.155c0-1.124-0.251-1.985-0.752-2.583
		C228.717,28.412,228,28.113,227.07,28.113z"/>
	<path fill="#3C579E" d="M239.627,38.822c-1.704,0-3.023-0.523-3.959-1.574c-0.934-1.049-1.401-2.533-1.401-4.452
		c0-1.97,0.475-3.491,1.423-4.565c0.949-1.074,2.301-1.611,4.056-1.611c0.565,0,1.132,0.061,1.697,0.183s1.01,0.265,1.332,0.43
		l-0.548,1.515c-0.394-0.157-0.823-0.288-1.289-0.393c-0.466-0.104-0.877-0.155-1.235-0.155c-2.392,0-3.588,1.525-3.588,4.576
		c0,1.446,0.292,2.557,0.876,3.331c0.583,0.773,1.448,1.16,2.594,1.16c0.981,0,1.987-0.211,3.019-0.635v1.58
		C241.815,38.619,240.824,38.822,239.627,38.822z"/>
	<path fill="#3C579E" d="M249.199,37.352c0.315,0,0.619-0.023,0.913-0.07s0.526-0.096,0.698-0.145V38.5
		c-0.193,0.094-0.479,0.17-0.854,0.23c-0.377,0.062-0.715,0.092-1.016,0.092c-2.277,0-3.416-1.199-3.416-3.598V28.22h-1.687v-0.859
		l1.687-0.741l0.752-2.514h1.031v2.729h3.416v1.386h-3.416v6.928c0,0.709,0.168,1.254,0.505,1.633
		C248.15,37.162,248.612,37.352,249.199,37.352z"/>
	<path fill="#3C579E" d="M268.492,38.607l-2.159-6.907c-0.136-0.423-0.391-1.382-0.763-2.879h-0.086
		c-0.286,1.253-0.537,2.22-0.752,2.9l-2.224,6.885h-2.062l-3.212-11.773h1.869c0.759,2.958,1.337,5.21,1.735,6.757
		c0.396,1.547,0.624,2.588,0.682,3.125h0.086c0.079-0.408,0.206-0.936,0.381-1.584c0.176-0.648,0.328-1.162,0.457-1.541l2.159-6.757
		h1.934l2.105,6.757c0.401,1.23,0.673,2.266,0.816,3.104h0.086c0.028-0.258,0.105-0.654,0.231-1.191
		c0.125-0.537,0.871-3.427,2.239-8.669h1.848l-3.255,11.773H268.492z"/>
	<path fill="#3C579E" d="M275.839,23.644c0-0.408,0.101-0.707,0.301-0.897c0.2-0.189,0.451-0.284,0.752-0.284
		c0.286,0,0.533,0.097,0.741,0.29s0.312,0.49,0.312,0.892s-0.104,0.7-0.312,0.897c-0.208,0.196-0.455,0.295-0.741,0.295
		c-0.301,0-0.552-0.099-0.752-0.295C275.94,24.344,275.839,24.045,275.839,23.644z M277.773,38.607h-1.783V26.834h1.783V38.607z"/>
	<path fill="#3C579E" d="M285.357,37.352c0.315,0,0.619-0.023,0.913-0.07s0.526-0.096,0.698-0.145V38.5
		c-0.193,0.094-0.479,0.17-0.854,0.23c-0.377,0.062-0.715,0.092-1.016,0.092c-2.277,0-3.416-1.199-3.416-3.598V28.22h-1.687v-0.859
		l1.687-0.741l0.752-2.514h1.031v2.729h3.416v1.386h-3.416v6.928c0,0.709,0.168,1.254,0.505,1.633
		C284.308,37.162,284.77,37.352,285.357,37.352z"/>
	<path fill="#3C579E" d="M297.377,38.607v-7.616c0-0.96-0.219-1.676-0.655-2.148s-1.121-0.709-2.052-0.709
		c-1.239,0-2.143,0.337-2.713,1.01c-0.568,0.673-0.854,1.776-0.854,3.309v6.155h-1.783V21.893h1.783v5.06
		c0,0.608-0.028,1.113-0.086,1.515h0.107c0.351-0.565,0.851-1.012,1.498-1.338c0.648-0.325,1.388-0.488,2.219-0.488
		c1.439,0,2.52,0.342,3.238,1.025c0.721,0.685,1.08,1.771,1.08,3.261v7.68H297.377z"/>
	<path fill="#3C579E" d="M310.633,38.607h-1.826V22.903h8.755v1.622h-6.929v5.747h6.51v1.622h-6.51V38.607z"/>
	<path fill="#3C579E" d="M327.133,38.607l-0.354-1.676h-0.086c-0.587,0.738-1.173,1.238-1.757,1.498
		c-0.583,0.262-1.312,0.393-2.186,0.393c-1.167,0-2.082-0.301-2.744-0.902c-0.663-0.602-0.994-1.457-0.994-2.566
		c0-2.378,1.901-3.625,5.704-3.739l1.998-0.064v-0.73c0-0.924-0.198-1.606-0.597-2.046c-0.396-0.441-1.032-0.661-1.906-0.661
		c-0.981,0-2.091,0.301-3.33,0.902l-0.548-1.364c0.58-0.315,1.216-0.562,1.907-0.741c0.69-0.179,1.384-0.269,2.078-0.269
		c1.403,0,2.443,0.312,3.121,0.935c0.676,0.623,1.015,1.622,1.015,2.997v8.035H327.133z M323.105,37.352
		c1.11,0,1.981-0.305,2.616-0.914c0.633-0.607,0.95-1.461,0.95-2.557v-1.063l-1.783,0.075c-1.418,0.05-2.44,0.271-3.067,0.66
		c-0.626,0.391-0.939,0.998-0.939,1.822c0,0.645,0.195,1.135,0.586,1.471C321.857,37.184,322.403,37.352,323.105,37.352z"/>
	<path fill="#3C579E" d="M336.833,38.822c-1.704,0-3.023-0.523-3.959-1.574c-0.934-1.049-1.401-2.533-1.401-4.452
		c0-1.97,0.475-3.491,1.423-4.565c0.949-1.074,2.301-1.611,4.056-1.611c0.565,0,1.132,0.061,1.697,0.183s1.01,0.265,1.332,0.43
		l-0.548,1.515c-0.394-0.157-0.823-0.288-1.289-0.393c-0.466-0.104-0.877-0.155-1.235-0.155c-2.392,0-3.588,1.525-3.588,4.576
		c0,1.446,0.292,2.557,0.876,3.331c0.583,0.773,1.448,1.16,2.594,1.16c0.981,0,1.987-0.211,3.019-0.635v1.58
		C339.021,38.619,338.03,38.822,336.833,38.822z"/>
	<path fill="#3C579E" d="M347.576,38.822c-1.74,0-3.113-0.529-4.12-1.59c-1.006-1.059-1.509-2.531-1.509-4.415
		c0-1.897,0.468-3.405,1.401-4.522c0.936-1.117,2.19-1.676,3.766-1.676c1.476,0,2.643,0.485,3.502,1.455
		c0.859,0.971,1.289,2.251,1.289,3.841v1.127h-8.11c0.036,1.383,0.385,2.432,1.048,3.148c0.662,0.715,1.595,1.074,2.798,1.074
		c1.268,0,2.521-0.266,3.76-0.795v1.59c-0.63,0.271-1.227,0.467-1.788,0.584C349.049,38.764,348.371,38.822,347.576,38.822z
		 M347.092,28.113c-0.945,0-1.699,0.308-2.262,0.924c-0.562,0.616-0.893,1.468-0.993,2.557h6.155c0-1.124-0.251-1.985-0.752-2.583
		C348.74,28.412,348.023,28.113,347.092,28.113z"/>
	<path fill="#3C579E" d="M360.423,26.641c1.547,0,2.748,0.528,3.604,1.584c0.856,1.057,1.284,2.552,1.284,4.485
		c0,1.934-0.432,3.436-1.294,4.506c-0.863,1.07-2.062,1.605-3.594,1.605c-0.767,0-1.467-0.141-2.1-0.424
		c-0.635-0.283-1.166-0.719-1.596-1.305h-0.129l-0.376,1.514h-1.278V21.893h1.783v4.061c0,0.909-0.028,1.726-0.086,2.449h0.086
		C357.559,27.228,358.791,26.641,360.423,26.641z M360.166,28.134c-1.218,0-2.095,0.349-2.632,1.048
		c-0.537,0.697-0.806,1.874-0.806,3.528c0,1.655,0.275,2.838,0.827,3.549c0.552,0.713,1.436,1.07,2.653,1.07
		c1.096,0,1.912-0.4,2.449-1.199c0.537-0.797,0.806-1.945,0.806-3.442c0-1.532-0.269-2.675-0.806-3.427
		S361.29,28.134,360.166,28.134z"/>
	<path fill="#3C579E" d="M378.588,32.71c0,1.918-0.483,3.418-1.45,4.495c-0.967,1.078-2.303,1.617-4.007,1.617
		c-1.053,0-1.987-0.246-2.804-0.74s-1.446-1.203-1.891-2.127s-0.666-2.006-0.666-3.245c0-1.919,0.479-3.414,1.439-4.485
		c0.96-1.07,2.292-1.605,3.996-1.605c1.647,0,2.956,0.548,3.927,1.644C378.103,29.359,378.588,30.841,378.588,32.71z M369.619,32.71
		c0,1.504,0.301,2.649,0.902,3.438c0.602,0.787,1.486,1.182,2.653,1.182s2.054-0.393,2.658-1.178
		c0.605-0.783,0.908-1.932,0.908-3.442c0-1.497-0.303-2.634-0.908-3.411c-0.604-0.776-1.498-1.165-2.68-1.165
		c-1.167,0-2.048,0.383-2.643,1.149S369.619,31.192,369.619,32.71z"/>
	<path fill="#3C579E" d="M391.876,32.71c0,1.918-0.483,3.418-1.45,4.495c-0.967,1.078-2.303,1.617-4.007,1.617
		c-1.053,0-1.987-0.246-2.804-0.74s-1.446-1.203-1.891-2.127s-0.666-2.006-0.666-3.245c0-1.919,0.479-3.414,1.439-4.485
		c0.96-1.07,2.292-1.605,3.996-1.605c1.647,0,2.956,0.548,3.927,1.644C391.391,29.359,391.876,30.841,391.876,32.71z M382.907,32.71
		c0,1.504,0.301,2.649,0.902,3.438c0.602,0.787,1.486,1.182,2.653,1.182s2.054-0.393,2.658-1.178
		c0.605-0.783,0.908-1.932,0.908-3.442c0-1.497-0.303-2.634-0.908-3.411c-0.604-0.776-1.498-1.165-2.68-1.165
		c-1.167,0-2.048,0.383-2.643,1.149S382.907,31.192,382.907,32.71z"/>
	<path fill="#3C579E" d="M396.764,32.582c0.308-0.437,0.777-1.01,1.407-1.719l3.803-4.028h2.116l-4.77,5.017l5.103,6.756h-2.159
		l-4.157-5.564l-1.343,1.16v4.404h-1.762V21.893h1.762v8.862c0,0.394-0.028,1.003-0.086,1.826H396.764z"/>
</g>
<path display="none" fill="#3C579E" d="M509.348,65.408c0-21.716,0-43.432,0-65.169c10.804,0,21.612,0,32.452,0
	c0,21.708,0,43.439,0,65.169C530.999,65.408,520.175,65.408,509.348,65.408z M533.17,26.909c-1.656,0-3.059-0.023-4.461,0.009
	c-0.718,0.017-0.969-0.298-0.936-0.974c0.049-0.972,0.064-1.945,0.104-2.917c0.039-0.958,0.504-1.587,1.485-1.679
	c0.967-0.09,1.94-0.117,2.911-0.128c0.572-0.007,0.87-0.182,0.859-0.81c-0.024-1.371-0.023-2.743,0.001-4.113
	c0.011-0.605-0.233-0.849-0.833-0.825c-1.944,0.077-3.898,0.035-5.831,0.224c-3.026,0.296-5,2.309-5.358,5.323
	c-0.132,1.106-0.185,2.226-0.196,3.34c-0.028,2.508-0.009,2.508-2.467,2.553c-0.035,0-0.072,0.004-0.107,0
	c-0.787-0.108-1.005,0.29-0.97,1.009c0.04,0.828,0.008,1.66,0.008,2.489c0,2.205,0.002,2.262,2.24,2.19
	c1.062-0.034,1.32,0.311,1.31,1.338c-0.051,4.979-0.009,9.958-0.038,14.938c-0.005,0.787,0.207,1.098,1.032,1.071
	c1.658-0.051,3.319-0.027,4.979-0.009c0.59,0.007,0.98-0.109,0.966-0.818c-0.036-1.73-0.048-3.462-0.058-5.192
	c-0.018-3.499-0.025-6.998-0.043-10.497c-0.003-0.59,0.256-0.831,0.857-0.813c1.082,0.031,2.166,0.033,3.246-0.012
	c0.262-0.011,0.716-0.229,0.737-0.396C532.831,30.508,532.982,28.797,533.17,26.909z"/>
<path fill-rule="evenodd" clip-rule="evenodd" fill="#3C579E" d="M533.17,26.909c-0.188,1.888-0.34,3.599-0.562,5.299
	c-0.021,0.168-0.476,0.386-0.737,0.396c-1.08,0.045-2.164,0.043-3.246,0.012c-0.602-0.017-0.86,0.223-0.857,0.813
	c0.018,3.499,0.025,6.998,0.043,10.497c0.01,1.73,0.021,3.462,0.058,5.192c0.015,0.709-0.376,0.825-0.966,0.818
	c-1.659-0.019-3.32-0.042-4.979,0.009c-0.825,0.026-1.037-0.284-1.032-1.071c0.029-4.979-0.013-9.959,0.038-14.938
	c0.011-1.027-0.247-1.373-1.31-1.338c-2.238,0.072-2.24,0.015-2.24-2.19c0-0.83,0.032-1.661-0.008-2.489
	c-0.035-0.719,0.183-1.117,0.97-1.009c0.035,0.005,0.072,0.001,0.107,0c2.458-0.045,2.438-0.045,2.467-2.553
	c0.012-1.115,0.064-2.234,0.196-3.34c0.358-3.014,2.332-5.027,5.358-5.323c1.933-0.189,3.887-0.147,5.831-0.224
	c0.6-0.024,0.844,0.22,0.833,0.825c-0.024,1.371-0.025,2.743-0.001,4.113c0.011,0.627-0.287,0.803-0.859,0.81
	c-0.971,0.012-1.944,0.039-2.911,0.128c-0.981,0.092-1.446,0.721-1.485,1.679c-0.04,0.972-0.056,1.946-0.104,2.917
	c-0.033,0.675,0.218,0.99,0.936,0.974C530.112,26.886,531.514,26.909,533.17,26.909z"/>
</svg>
