<?xml version="1.0" encoding="utf-8"?>
<!-- Generated by IcoMoon.io -->
<!DOCTYPE svg PUBLIC "-//W3C//DTD SVG 1.1//EN" "http://www.w3.org/Graphics/SVG/1.1/DTD/svg11.dtd">
<svg version="1.1" xmlns="http://www.w3.org/2000/svg" xmlns:xlink="http://www.w3.org/1999/xlink" width="32" height="32" viewBox="0 0 32 32">
<path fill="#444444" d="M26.37 30.815h-21.333c-2.777 0-5.037-2.259-5.037-5.037v-19.556c0-2.778 2.26-5.037 5.037-5.037h6.49c1.448 0 2.811 0.77 3.557 2.012l1.113 1.856c0.213 0.354 0.603 0.575 1.017 0.575h9.157c2.777 0 5.037 2.259 5.037 5.037v15.111c0 2.779-2.26 5.038-5.037 5.038zM5.037 4.148c-1.144 0-2.074 0.93-2.074 2.074v19.556c0 1.144 0.93 2.074 2.074 2.074h21.333c1.144 0 2.074-0.93 2.074-2.074v-15.111c0-1.144-0.93-2.074-2.074-2.074h-9.157c-1.448 0-2.812-0.772-3.557-2.014l-1.113-1.856c-0.213-0.354-0.603-0.575-1.017-0.575h-6.49z"></path>
</svg>
