<?xml version="1.0" encoding="utf-8"?>
<!-- Generated by IcoMoon.io -->
<!DOCTYPE svg PUBLIC "-//W3C//DTD SVG 1.1//EN" "http://www.w3.org/Graphics/SVG/1.1/DTD/svg11.dtd">
<svg version="1.1" xmlns="http://www.w3.org/2000/svg" xmlns:xlink="http://www.w3.org/1999/xlink" width="32" height="32" viewBox="0 0 32 32">
<path fill="#444444" d="M16 0c-8.837 0-16 7.163-16 16s7.164 16 16 16c8.836 0 16-7.164 16-16 0-8.837-7.164-16-16-16zM24.959 17.457h-7.491l-2.927 0.011h-7.501c-0.808 0-1.463-0.656-1.464-1.464 0-0.808 0.656-1.464 1.464-1.464h7.491l2.927-0.011h7.501c0.404 0 0.771 0.164 1.035 0.429 0.265 0.264 0.429 0.631 0.429 1.035 0 0.809-0.655 1.464-1.464 1.464z"></path>
</svg>
