<?xml version="1.0" encoding="utf-8"?>
<!-- Generated by IcoMoon.io -->
<!DOCTYPE svg PUBLIC "-//W3C//DTD SVG 1.1//EN" "http://www.w3.org/Graphics/SVG/1.1/DTD/svg11.dtd">
<svg version="1.1" xmlns="http://www.w3.org/2000/svg" xmlns:xlink="http://www.w3.org/1999/xlink" width="32" height="32" viewBox="0 0 32 32">
<path fill="#444444" d="M13.259 14.798h-12.336c-0.51 0-0.923-0.414-0.923-0.923v-12.336c0-0.51 0.414-0.923 0.923-0.923h12.336c0.51 0 0.923 0.414 0.923 0.923v12.336c0 0.511-0.414 0.923-0.923 0.923zM1.846 12.951h10.49v-10.49h-10.49v10.49z"></path>
<path fill="#444444" d="M30.462 14.798h-12.336c-0.51 0-0.923-0.414-0.923-0.923v-12.336c0-0.51 0.414-0.923 0.923-0.923h12.336c0.51 0 0.923 0.414 0.923 0.923v12.336c0 0.511-0.414 0.923-0.923 0.923zM19.049 12.951h10.49v-10.49h-10.49v10.49z"></path>
<path fill="#444444" d="M13.259 31.583h-12.336c-0.51 0-0.923-0.414-0.923-0.923v-12.336c0-0.51 0.414-0.923 0.923-0.923h12.336c0.51 0 0.923 0.414 0.923 0.923v12.336c0 0.51-0.414 0.923-0.923 0.923zM1.846 29.737h10.49v-10.49h-10.49v10.49z"></path>
<path fill="#444444" d="M30.462 31.583h-12.336c-0.51 0-0.923-0.414-0.923-0.923v-12.336c0-0.51 0.414-0.923 0.923-0.923h12.336c0.51 0 0.923 0.414 0.923 0.923v12.336c0 0.51-0.414 0.923-0.923 0.923zM19.049 29.737h10.49v-10.49h-10.49v10.49z"></path>
</svg>
