<?xml version="1.0" encoding="utf-8"?>
<!-- Generated by IcoMoon.io -->
<!DOCTYPE svg PUBLIC "-//W3C//DTD SVG 1.1//EN" "http://www.w3.org/Graphics/SVG/1.1/DTD/svg11.dtd">
<svg version="1.1" xmlns="http://www.w3.org/2000/svg" xmlns:xlink="http://www.w3.org/1999/xlink" width="32" height="32" viewBox="0 0 32 32">
<path fill="#444444" d="M27.077 30.769h-22.154c-2.715 0-4.923-2.208-4.923-4.923v-20.308c0-2.715 2.208-4.923 4.923-4.923h6.74c1.397 0 2.711 0.743 3.43 1.943l1.156 1.925c0.277 0.46 0.782 0.746 1.319 0.746h9.509c2.715 0 4.923 2.208 4.923 4.923v15.694c0 2.715-2.208 4.923-4.923 4.923zM4.923 3.077c-1.358 0-2.462 1.104-2.462 2.462v20.308c0 1.358 1.104 2.462 2.462 2.462h22.154c1.358 0 2.462-1.104 2.462-2.462v-15.692c0-1.358-1.104-2.462-2.462-2.462h-9.509c-1.397 0-2.711-0.743-3.43-1.941l-1.156-1.926c-0.277-0.463-0.782-0.748-1.319-0.748h-6.74z"></path>
</svg>
