<?xml version="1.0" encoding="utf-8"?>
<!-- Generated by IcoMoon.io -->
<!DOCTYPE svg PUBLIC "-//W3C//DTD SVG 1.1//EN" "http://www.w3.org/Graphics/SVG/1.1/DTD/svg11.dtd">
<svg version="1.1" xmlns="http://www.w3.org/2000/svg" xmlns:xlink="http://www.w3.org/1999/xlink" width="32" height="32" viewBox="0 0 32 32">
<path fill="#444444" d="M16 0c-8.836 0-16 7.163-16 16s7.164 16 16 16 16-7.164 16-16c0-8.837-7.164-16-16-16zM23.373 21.296c0.285 0.285 0.429 0.66 0.429 1.035s-0.143 0.749-0.429 1.035c-0.572 0.571-1.499 0.571-2.069 0l-5.296-5.297-5.311 5.312c-0.572 0.572-1.499 0.572-2.071 0s-0.572-1.499 0-2.069l5.304-5.305-5.304-5.303c-0.572-0.572-0.571-1.499 0-2.069 0.572-0.572 1.499-0.572 2.071 0l5.296 5.296 5.311-5.311c0.572-0.572 1.499-0.572 2.069 0 0.285 0.285 0.429 0.66 0.429 1.035s-0.143 0.749-0.429 1.035l-5.304 5.304 5.304 5.304z"></path>
</svg>
