<?xml version="1.0" encoding="utf-8"?>
<!-- Generator: Adobe Illustrator 16.0.0, SVG Export Plug-In . SVG Version: 6.00 Build 0)  -->
<!DOCTYPE svg PUBLIC "-//W3C//DTD SVG 1.1//EN" "http://www.w3.org/Graphics/SVG/1.1/DTD/svg11.dtd">
<svg version="1.1" id="Layer_1" xmlns="http://www.w3.org/2000/svg" xmlns:xlink="http://www.w3.org/1999/xlink" x="0px" y="0px"
	 width="285.5px" height="33.743px" viewBox="0 0 285.5 33.743" enable-background="new 0 0 285.5 33.743" xml:space="preserve">
<g>
	<path fill="#FFFFFF" d="M269.786,32.723H15.81c-8.051,0-14.578-6.526-14.578-14.578v-2.263c0-8.051,6.527-14.578,14.578-14.578
		h253.976c8.052,0,14.578,6.527,14.578,14.578v2.263C284.364,26.196,277.837,32.723,269.786,32.723z"/>
	<path fill="#336298" d="M269.786,33.223H15.81c-8.314,0-15.078-6.764-15.078-15.078v-2.263c0-8.314,6.764-15.078,15.078-15.078
		h253.976c8.314,0,15.078,6.764,15.078,15.078v2.263C284.864,26.459,278.1,33.223,269.786,33.223z M15.81,1.804
		c-7.763,0-14.078,6.315-14.078,14.078v2.263c0,7.763,6.315,14.078,14.078,14.078h253.976c7.763,0,14.078-6.315,14.078-14.078
		v-2.263c0-7.763-6.315-14.078-14.078-14.078H15.81z"/>
</g>
<g>
	<path fill="#3C579E" d="M89.423,12.998c-0.881,0-1.576,0.293-2.085,0.879s-0.764,1.389-0.764,2.409c0,1.048,0.246,1.857,0.737,2.43
		s1.192,0.857,2.102,0.857c0.559,0,1.197-0.1,1.913-0.301v0.816c-0.555,0.208-1.24,0.312-2.055,0.312
		c-1.18,0-2.09-0.358-2.731-1.074c-0.642-0.717-0.962-1.734-0.962-3.053c0-0.826,0.154-1.549,0.463-2.17s0.754-1.1,1.337-1.436
		c0.583-0.336,1.269-0.504,2.058-0.504c0.84,0,1.575,0.153,2.203,0.46l-0.395,0.8C90.636,13.14,90.029,12.998,89.423,12.998z"/>
	<path fill="#3C579E" d="M98.12,17.282c0,0.98-0.247,1.744-0.74,2.294s-1.174,0.825-2.044,0.825c-0.537,0-1.014-0.127-1.43-0.379
		s-0.738-0.613-0.964-1.084c-0.227-0.472-0.34-1.023-0.34-1.656c0-0.979,0.245-1.741,0.734-2.287
		c0.489-0.546,1.169-0.819,2.039-0.819c0.84,0,1.508,0.279,2.003,0.838S98.12,16.329,98.12,17.282z M93.544,17.282
		c0,0.768,0.153,1.353,0.46,1.754c0.307,0.402,0.758,0.604,1.354,0.604c0.595,0,1.047-0.2,1.356-0.601
		c0.309-0.399,0.463-0.985,0.463-1.757c0-0.763-0.154-1.343-0.463-1.739c-0.309-0.396-0.765-0.595-1.367-0.595
		c-0.596,0-1.045,0.196-1.348,0.586C93.695,15.926,93.544,16.509,93.544,17.282z"/>
	<path fill="#3C579E" d="M103.825,20.292v-3.886c0-0.489-0.112-0.855-0.334-1.096s-0.572-0.362-1.047-0.362
		c-0.628,0-1.088,0.17-1.381,0.51c-0.292,0.34-0.438,0.9-0.438,1.683v3.151h-0.91v-6.007h0.74l0.148,0.822h0.044
		c0.187-0.296,0.448-0.525,0.784-0.688s0.71-0.244,1.124-0.244c0.723,0,1.268,0.174,1.633,0.523
		c0.365,0.349,0.548,0.907,0.548,1.674v3.919H103.825z"/>
	<path fill="#3C579E" d="M110.713,20.292v-3.886c0-0.489-0.112-0.855-0.334-1.096s-0.572-0.362-1.047-0.362
		c-0.628,0-1.088,0.17-1.381,0.51c-0.292,0.34-0.438,0.9-0.438,1.683v3.151h-0.91v-6.007h0.74l0.148,0.822h0.044
		c0.187-0.296,0.448-0.525,0.784-0.688s0.71-0.244,1.124-0.244c0.723,0,1.268,0.174,1.633,0.523
		c0.365,0.349,0.548,0.907,0.548,1.674v3.919H110.713z"/>
	<path fill="#3C579E" d="M116.029,20.401c-0.888,0-1.588-0.271-2.102-0.812c-0.514-0.54-0.77-1.291-0.77-2.252
		c0-0.968,0.238-1.737,0.715-2.307c0.477-0.57,1.117-0.855,1.921-0.855c0.752,0,1.348,0.248,1.787,0.743s0.658,1.148,0.658,1.959
		v0.574H114.1c0.018,0.705,0.196,1.241,0.534,1.606s0.814,0.548,1.428,0.548c0.646,0,1.286-0.135,1.918-0.405v0.812
		c-0.321,0.139-0.625,0.238-0.913,0.298C116.781,20.371,116.435,20.401,116.029,20.401z M115.783,14.938
		c-0.482,0-0.867,0.157-1.154,0.471c-0.287,0.315-0.456,0.749-0.507,1.304h3.14c0-0.573-0.128-1.013-0.384-1.318
		S116.257,14.938,115.783,14.938z"/>
	<path fill="#3C579E" d="M122.189,20.401c-0.87,0-1.542-0.268-2.02-0.803c-0.477-0.535-0.715-1.293-0.715-2.271
		c0-1.005,0.242-1.781,0.726-2.33c0.484-0.548,1.173-0.822,2.069-0.822c0.289,0,0.577,0.031,0.866,0.093
		c0.289,0.062,0.515,0.135,0.68,0.219l-0.28,0.772c-0.201-0.08-0.42-0.147-0.658-0.2c-0.237-0.053-0.447-0.079-0.63-0.079
		c-1.22,0-1.831,0.777-1.831,2.334c0,0.738,0.149,1.305,0.447,1.699s0.739,0.592,1.323,0.592c0.5,0,1.014-0.107,1.54-0.323v0.806
		C123.305,20.297,122.799,20.401,122.189,20.401z"/>
	<path fill="#3C579E" d="M127.072,19.65c0.161,0,0.316-0.012,0.466-0.036c0.15-0.023,0.269-0.048,0.356-0.074v0.697
		c-0.099,0.047-0.244,0.086-0.436,0.117c-0.192,0.031-0.365,0.047-0.518,0.047c-1.162,0-1.743-0.612-1.743-1.836v-3.573h-0.86
		v-0.438l0.86-0.378l0.384-1.282h0.526v1.392h1.743v0.707h-1.743v3.534c0,0.362,0.086,0.641,0.258,0.834
		C126.537,19.554,126.772,19.65,127.072,19.65z"/>
	<path fill="#3C579E" d="M136.914,20.292l-1.102-3.524c-0.069-0.216-0.199-0.705-0.389-1.468h-0.043
		c-0.146,0.639-0.274,1.132-0.384,1.479l-1.134,3.514h-1.052l-1.639-6.007h0.954c0.387,1.509,0.682,2.658,0.885,3.447
		c0.203,0.789,0.318,1.321,0.348,1.595h0.044c0.04-0.209,0.105-0.478,0.194-0.809c0.09-0.33,0.167-0.593,0.233-0.786l1.102-3.447
		h0.987l1.074,3.447c0.205,0.628,0.343,1.156,0.417,1.583h0.044c0.015-0.131,0.054-0.334,0.118-0.607
		c0.064-0.274,0.445-1.748,1.143-4.423h0.943l-1.661,6.007H136.914z"/>
	<path fill="#3C579E" d="M140.663,12.658c0-0.208,0.051-0.361,0.153-0.458c0.103-0.097,0.23-0.146,0.384-0.146
		c0.146,0,0.272,0.049,0.378,0.148s0.159,0.25,0.159,0.455s-0.053,0.357-0.159,0.458s-0.232,0.151-0.378,0.151
		c-0.153,0-0.281-0.05-0.384-0.151C140.714,13.015,140.663,12.862,140.663,12.658z M141.649,20.292h-0.91v-6.007h0.91V20.292z"/>
	<path fill="#3C579E" d="M145.518,19.65c0.161,0,0.315-0.012,0.466-0.036c0.15-0.023,0.269-0.048,0.356-0.074v0.697
		c-0.099,0.047-0.244,0.086-0.436,0.117c-0.192,0.031-0.364,0.047-0.519,0.047c-1.161,0-1.742-0.612-1.742-1.836v-3.573h-0.86
		v-0.438l0.86-0.378l0.384-1.282h0.526v1.392h1.742v0.707h-1.742v3.534c0,0.362,0.086,0.641,0.258,0.834
		C144.983,19.554,145.218,19.65,145.518,19.65z"/>
	<path fill="#3C579E" d="M151.65,20.292v-3.886c0-0.489-0.111-0.855-0.334-1.096s-0.572-0.362-1.047-0.362
		c-0.632,0-1.094,0.172-1.383,0.515c-0.291,0.344-0.437,0.907-0.437,1.688v3.141h-0.909v-8.527h0.909v2.581
		c0,0.311-0.015,0.568-0.044,0.772h0.055c0.18-0.289,0.434-0.516,0.765-0.682s0.708-0.25,1.132-0.25
		c0.734,0,1.285,0.175,1.652,0.523c0.367,0.349,0.551,0.903,0.551,1.663v3.919H151.65z"/>
	<path fill="#3C579E" d="M158.413,20.292h-0.932V12.28h4.466v0.827h-3.534v2.932h3.321v0.827h-3.321V20.292z"/>
	<path fill="#3C579E" d="M166.83,20.292l-0.181-0.855h-0.044c-0.3,0.377-0.599,0.631-0.896,0.765s-0.669,0.2-1.115,0.2
		c-0.595,0-1.062-0.154-1.399-0.461c-0.339-0.307-0.508-0.743-0.508-1.31c0-1.213,0.971-1.849,2.91-1.907l1.02-0.033v-0.372
		c0-0.472-0.102-0.819-0.304-1.044c-0.203-0.225-0.527-0.337-0.973-0.337c-0.501,0-1.067,0.153-1.699,0.46l-0.279-0.696
		c0.296-0.161,0.62-0.287,0.973-0.378s0.706-0.137,1.061-0.137c0.716,0,1.246,0.159,1.592,0.477
		c0.345,0.318,0.518,0.827,0.518,1.529v4.1H166.83z M164.775,19.65c0.565,0,1.011-0.155,1.334-0.466s0.485-0.745,0.485-1.305v-0.542
		l-0.91,0.038c-0.724,0.025-1.245,0.139-1.564,0.337c-0.319,0.199-0.479,0.509-0.479,0.929c0,0.329,0.1,0.58,0.299,0.751
		C164.138,19.564,164.417,19.65,164.775,19.65z"/>
	<path fill="#3C579E" d="M171.779,20.401c-0.87,0-1.543-0.268-2.02-0.803c-0.478-0.535-0.716-1.293-0.716-2.271
		c0-1.005,0.242-1.781,0.727-2.33c0.484-0.548,1.174-0.822,2.068-0.822c0.289,0,0.577,0.031,0.866,0.093
		c0.288,0.062,0.515,0.135,0.68,0.219l-0.279,0.772c-0.201-0.08-0.421-0.147-0.658-0.2c-0.237-0.053-0.447-0.079-0.63-0.079
		c-1.221,0-1.83,0.777-1.83,2.334c0,0.738,0.148,1.305,0.446,1.699s0.738,0.592,1.323,0.592c0.501,0,1.014-0.107,1.54-0.323v0.806
		C172.894,20.297,172.388,20.401,171.779,20.401z"/>
	<path fill="#3C579E" d="M177.258,20.401c-0.888,0-1.589-0.271-2.102-0.812c-0.514-0.54-0.771-1.291-0.771-2.252
		c0-0.968,0.238-1.737,0.716-2.307c0.477-0.57,1.116-0.855,1.921-0.855c0.752,0,1.348,0.248,1.786,0.743s0.657,1.148,0.657,1.959
		v0.574h-4.137c0.018,0.705,0.196,1.241,0.534,1.606s0.813,0.548,1.428,0.548c0.646,0,1.285-0.135,1.918-0.405v0.812
		c-0.322,0.139-0.626,0.238-0.913,0.298C178.01,20.371,177.664,20.401,177.258,20.401z M177.011,14.938
		c-0.482,0-0.866,0.157-1.153,0.471c-0.287,0.315-0.456,0.749-0.507,1.304h3.14c0-0.573-0.128-1.013-0.383-1.318
		C177.852,15.09,177.487,14.938,177.011,14.938z"/>
	<path fill="#3C579E" d="M183.813,14.187c0.789,0,1.401,0.27,1.838,0.809c0.437,0.539,0.655,1.301,0.655,2.287
		c0,0.987-0.221,1.754-0.66,2.3c-0.44,0.546-1.052,0.819-1.833,0.819c-0.392,0-0.748-0.072-1.071-0.217
		c-0.324-0.145-0.595-0.366-0.814-0.666h-0.065l-0.192,0.773h-0.651v-8.527h0.909v2.071c0,0.464-0.015,0.88-0.044,1.25h0.044
		C182.351,14.486,182.98,14.187,183.813,14.187z M183.681,14.948c-0.621,0-1.068,0.178-1.343,0.535
		c-0.274,0.356-0.411,0.956-0.411,1.799c0,0.845,0.141,1.448,0.422,1.812c0.281,0.363,0.732,0.545,1.354,0.545
		c0.56,0,0.976-0.204,1.25-0.611c0.273-0.407,0.411-0.992,0.411-1.756c0-0.782-0.138-1.365-0.411-1.749
		C184.678,15.14,184.254,14.948,183.681,14.948z"/>
	<path fill="#3C579E" d="M193.08,17.282c0,0.98-0.246,1.744-0.739,2.294s-1.175,0.825-2.044,0.825c-0.537,0-1.015-0.127-1.431-0.379
		c-0.417-0.252-0.738-0.613-0.965-1.084c-0.227-0.472-0.34-1.023-0.34-1.656c0-0.979,0.245-1.741,0.734-2.287
		c0.49-0.546,1.169-0.819,2.039-0.819c0.84,0,1.508,0.279,2.003,0.838S193.08,16.329,193.08,17.282z M188.504,17.282
		c0,0.768,0.153,1.353,0.46,1.754c0.307,0.402,0.758,0.604,1.354,0.604s1.048-0.2,1.356-0.601c0.309-0.399,0.463-0.985,0.463-1.757
		c0-0.763-0.154-1.343-0.463-1.739s-0.765-0.595-1.367-0.595c-0.596,0-1.045,0.196-1.349,0.586
		C188.656,15.926,188.504,16.509,188.504,17.282z"/>
	<path fill="#3C579E" d="M199.859,17.282c0,0.98-0.246,1.744-0.739,2.294s-1.175,0.825-2.044,0.825
		c-0.537,0-1.015-0.127-1.431-0.379c-0.417-0.252-0.738-0.613-0.965-1.084c-0.227-0.472-0.34-1.023-0.34-1.656
		c0-0.979,0.245-1.741,0.734-2.287c0.49-0.546,1.169-0.819,2.039-0.819c0.84,0,1.508,0.279,2.003,0.838
		S199.859,16.329,199.859,17.282z M195.284,17.282c0,0.768,0.153,1.353,0.46,1.754c0.307,0.402,0.758,0.604,1.354,0.604
		s1.048-0.2,1.356-0.601c0.309-0.399,0.463-0.985,0.463-1.757c0-0.763-0.154-1.343-0.463-1.739s-0.765-0.595-1.367-0.595
		c-0.596,0-1.045,0.196-1.349,0.586C195.435,15.926,195.284,16.509,195.284,17.282z"/>
	<path fill="#3C579E" d="M202.353,17.218c0.157-0.224,0.396-0.516,0.718-0.877l1.94-2.056h1.079l-2.433,2.56l2.603,3.447h-1.102
		l-2.121-2.84l-0.685,0.592v2.248h-0.898v-8.527h0.898v4.521c0,0.2-0.015,0.511-0.044,0.932H202.353z"/>
</g>
<g display="none">
	<defs>
		<path id="SVGID_1_" d="M271.939,14.323c-0.097,0.963-0.174,1.836-0.287,2.703c-0.011,0.086-0.242,0.197-0.376,0.203
			c-0.551,0.022-1.104,0.021-1.655,0.006c-0.308-0.009-0.439,0.114-0.438,0.415c0.009,1.784,0.013,3.569,0.021,5.354
			c0.005,0.884,0.011,1.767,0.029,2.649c0.008,0.361-0.191,0.421-0.492,0.417c-0.847-0.009-1.694-0.021-2.54,0.005
			c-0.421,0.014-0.529-0.145-0.526-0.547c0.015-2.54-0.007-5.08,0.02-7.62c0.005-0.523-0.126-0.7-0.669-0.683
			c-1.142,0.036-1.143,0.008-1.143-1.117c0-0.424,0.017-0.848-0.004-1.27c-0.018-0.367,0.094-0.57,0.495-0.515
			c0.018,0.002,0.036,0,0.055,0c1.254-0.023,1.244-0.023,1.258-1.303c0.007-0.568,0.033-1.14,0.101-1.704
			c0.183-1.538,1.189-2.564,2.733-2.716c0.986-0.096,1.983-0.075,2.975-0.114c0.307-0.012,0.431,0.112,0.425,0.421
			c-0.012,0.699-0.013,1.399,0,2.098c0.005,0.32-0.146,0.41-0.438,0.413c-0.495,0.006-0.992,0.02-1.485,0.065
			c-0.501,0.047-0.737,0.368-0.758,0.856c-0.021,0.496-0.028,0.993-0.053,1.488c-0.018,0.345,0.11,0.505,0.478,0.497
			C270.378,14.312,271.094,14.323,271.939,14.323z"/>
	</defs>
	<clipPath id="SVGID_2_" display="inline">
		<use xlink:href="#SVGID_1_"  overflow="visible"/>
	</clipPath>
	<path display="inline" clip-path="url(#SVGID_2_)" fill="#FFFFFF" d="M259.786,33.963c0-11.078,0-22.156,0-33.246
		c5.512,0,11.025,0,16.556,0c0,11.075,0,22.161,0,33.246C270.831,33.963,265.309,33.963,259.786,33.963z M271.939,14.323
		c-0.845,0-1.561-0.012-2.275,0.005c-0.367,0.008-0.495-0.152-0.478-0.497c0.024-0.496,0.032-0.992,0.053-1.488
		c0.021-0.488,0.257-0.81,0.758-0.856c0.493-0.046,0.99-0.06,1.485-0.065c0.292-0.003,0.443-0.093,0.438-0.413
		c-0.013-0.699-0.012-1.399,0-2.098c0.006-0.309-0.118-0.434-0.425-0.421c-0.991,0.04-1.988,0.018-2.975,0.114
		c-1.544,0.151-2.551,1.178-2.733,2.716c-0.067,0.564-0.094,1.135-0.101,1.704c-0.014,1.28-0.004,1.28-1.258,1.303
		c-0.019,0-0.037,0.002-0.055,0c-0.401-0.055-0.513,0.148-0.495,0.515c0.021,0.422,0.004,0.846,0.004,1.27
		c0,1.125,0.001,1.153,1.143,1.117c0.543-0.018,0.674,0.159,0.669,0.683c-0.026,2.54-0.005,5.08-0.02,7.62
		c-0.003,0.402,0.105,0.561,0.526,0.547c0.846-0.026,1.693-0.014,2.54-0.005c0.301,0.004,0.5-0.056,0.492-0.417
		c-0.019-0.883-0.024-1.766-0.029-2.649c-0.009-1.785-0.013-3.57-0.021-5.354c-0.002-0.301,0.13-0.424,0.438-0.415
		c0.552,0.016,1.104,0.017,1.655-0.006c0.134-0.006,0.365-0.117,0.376-0.203C271.765,16.159,271.842,15.287,271.939,14.323z"/>
</g>
<path display="none" fill="#3C579E" d="M259.786,33.743c0-11.078,0-22.155,0-33.245c5.512,0,11.025,0,16.556,0
	c0,11.075,0,22.161,0,33.245C270.831,33.743,265.309,33.743,259.786,33.743z M271.939,14.104c-0.845,0-1.561-0.012-2.275,0.005
	c-0.367,0.009-0.495-0.152-0.478-0.497c0.024-0.496,0.032-0.992,0.053-1.488c0.021-0.488,0.257-0.81,0.758-0.856
	c0.493-0.046,0.99-0.06,1.485-0.065c0.292-0.004,0.443-0.094,0.438-0.413c-0.013-0.699-0.012-1.399,0-2.099
	c0.006-0.309-0.118-0.434-0.425-0.421c-0.991,0.04-1.988,0.019-2.975,0.114c-1.544,0.151-2.551,1.178-2.733,2.716
	c-0.067,0.563-0.094,1.136-0.101,1.704c-0.014,1.279-0.004,1.279-1.258,1.303c-0.019,0-0.037,0.002-0.055,0
	c-0.401-0.056-0.513,0.147-0.495,0.514c0.021,0.422,0.004,0.846,0.004,1.27c0,1.125,0.001,1.154,1.143,1.117
	c0.543-0.018,0.674,0.16,0.669,0.684c-0.026,2.539-0.005,5.08-0.02,7.619c-0.003,0.402,0.105,0.561,0.526,0.547
	c0.846-0.025,1.693-0.014,2.54-0.004c0.301,0.004,0.5-0.057,0.492-0.418c-0.019-0.883-0.024-1.766-0.029-2.648
	c-0.009-1.785-0.013-3.57-0.021-5.355c-0.002-0.301,0.13-0.424,0.438-0.414c0.552,0.016,1.104,0.016,1.655-0.006
	c0.134-0.006,0.365-0.117,0.376-0.203C271.765,15.94,271.842,15.067,271.939,14.104z"/>
<path fill-rule="evenodd" clip-rule="evenodd" fill="#3C579E" d="M271.939,14.104c-0.097,0.963-0.174,1.836-0.287,2.704
	c-0.011,0.086-0.242,0.197-0.376,0.203c-0.551,0.021-1.104,0.021-1.655,0.006c-0.308-0.01-0.439,0.113-0.438,0.414
	c0.009,1.785,0.013,3.57,0.021,5.355c0.005,0.883,0.011,1.766,0.029,2.648c0.008,0.361-0.191,0.422-0.492,0.418
	c-0.847-0.01-1.694-0.021-2.54,0.004c-0.421,0.014-0.529-0.145-0.526-0.547c0.015-2.539-0.007-5.08,0.02-7.619
	c0.005-0.523-0.126-0.701-0.669-0.684c-1.142,0.037-1.143,0.008-1.143-1.117c0-0.424,0.017-0.848-0.004-1.27
	c-0.018-0.367,0.094-0.57,0.495-0.514c0.018,0.002,0.036,0,0.055,0c1.254-0.023,1.244-0.023,1.258-1.303
	c0.007-0.568,0.033-1.141,0.101-1.704c0.183-1.538,1.189-2.564,2.733-2.716c0.986-0.096,1.983-0.074,2.975-0.114
	c0.307-0.013,0.431,0.112,0.425,0.421c-0.012,0.699-0.013,1.399,0,2.099c0.005,0.319-0.146,0.409-0.438,0.413
	c-0.495,0.006-0.992,0.02-1.485,0.065c-0.501,0.047-0.737,0.368-0.758,0.856c-0.021,0.496-0.028,0.992-0.053,1.488
	c-0.018,0.345,0.11,0.506,0.478,0.497C270.378,14.092,271.094,14.104,271.939,14.104z"/>
</svg>
