<?xml version="1.0" encoding="utf-8"?>
<!-- Generated by IcoMoon.io -->
<!DOCTYPE svg PUBLIC "-//W3C//DTD SVG 1.1//EN" "http://www.w3.org/Graphics/SVG/1.1/DTD/svg11.dtd">
<svg version="1.1" xmlns="http://www.w3.org/2000/svg" xmlns:xlink="http://www.w3.org/1999/xlink" width="32" height="32" viewBox="0 0 32 32">
<path fill="#444444" d="M25.398 32h-19.284c-3.371 0-6.114-2.743-6.114-6.114v-17.574c0-3.371 2.743-6.114 6.114-6.114h19.284c3.371 0 6.114 2.743 6.114 6.114v17.574c0 3.371-2.743 6.114-6.114 6.114zM6.114 4.643c-2.023 0-3.668 1.646-3.668 3.668v17.574c0 2.023 1.646 3.668 3.668 3.668h19.284c2.023 0 3.668-1.646 3.668-3.668v-17.574c0-2.023-1.646-3.668-3.668-3.668h-19.284z"></path>
<path fill="#444444" d="M1.504 10.901h29.066v2.446h-29.066v-2.446z"></path>
<path fill="#444444" d="M6.839 0h2.446v5.986h-2.446v-5.986z"></path>
<path fill="#444444" d="M22.227 0h2.446v5.986h-2.446v-5.986z"></path>
</svg>
