<?xml version="1.0" encoding="utf-8"?>
<!-- Generated by IcoMoon.io -->
<!DOCTYPE svg PUBLIC "-//W3C//DTD SVG 1.1//EN" "http://www.w3.org/Graphics/SVG/1.1/DTD/svg11.dtd">
<svg version="1.1" xmlns="http://www.w3.org/2000/svg" xmlns:xlink="http://www.w3.org/1999/xlink" width="32" height="32" viewBox="0 0 32 32">
<path fill="#444444" d="M26.396 30.767c-1.727 0-3.38-0.619-4.665-1.726-2.126 1.132-4.507 1.726-6.94 1.726-8.155 0-14.791-6.636-14.791-14.791s6.636-14.791 14.791-14.791 14.791 6.636 14.791 14.791c0 2.789-0.77 5.48-2.233 7.819 0.388 1.609 1.414 2.981 2.865 3.803l1.7 0.964-1.64 1.062c-1.156 0.749-2.495 1.144-3.877 1.144zM22.152 26.031l0.661 0.753c1.093 1.247 2.835 1.836 4.459 1.534-1.23-1.222-2.057-2.808-2.349-4.568l-0.077-0.466 0.264-0.39c1.376-2.041 2.103-4.433 2.103-6.917-0.001-6.85-5.573-12.422-12.422-12.422s-12.421 5.572-12.421 12.421c0 6.849 5.572 12.421 12.421 12.421 2.31 0 4.561-0.636 6.509-1.839l0.852-0.526z"></path>
</svg>
